<svg width="1067" height="400" viewBox="0 0 1067 400" fill="none" xmlns="http://www.w3.org/2000/svg">
<g clip-path="url(#clip0_301_3)">
<rect width="1066.67" height="400" fill="white"/>
<g opacity="0.66" clip-path="url(#clip1_301_3)">
<path d="M20.0967 -28.342H-8.40979V0.173374H20.0967V-28.342Z" stroke="#DDDDDD" stroke-width="1.5"/>
<path d="M48.6031 -28.342H20.0967V0.173374H48.6031V-28.342Z" stroke="#DDDDDD" stroke-width="1.5"/>
<path d="M77.1096 -28.342H48.6031V0.173374H77.1096V-28.342Z" fill="#E2E7F0" fill-opacity="0.3" stroke="#DDDDDD" stroke-width="1.5"/>
<path d="M105.616 -28.342H77.1096V0.173374H105.616V-28.342Z" stroke="#DDDDDD" stroke-width="1.5"/>
<path d="M134.123 -28.342H105.616V0.173374H134.123V-28.342Z" stroke="#DDDDDD" stroke-width="1.5"/>
<path d="M162.629 -28.342H134.123V0.173374H162.629V-28.342Z" stroke="#DDDDDD" stroke-width="1.5"/>
<path d="M191.135 -28.342H162.629V0.173374H191.135V-28.342Z" stroke="#DDDDDD" stroke-width="1.5"/>
<path d="M219.642 -28.342H191.136V0.173374H219.642V-28.342Z" stroke="#DDDDDD" stroke-width="1.5"/>
<path d="M248.148 -28.342H219.642V0.173374H248.148V-28.342Z" fill="#E2E7F0" fill-opacity="0.3" stroke="#DDDDDD" stroke-width="1.5"/>
<path d="M276.655 -28.342H248.148V0.173374H276.655V-28.342Z" stroke="#DDDDDD" stroke-width="1.5"/>
<path d="M305.161 -28.342H276.655V0.173374H305.161V-28.342Z" stroke="#DDDDDD" stroke-width="1.5"/>
<path d="M333.668 -28.342H305.161V0.173374H333.668V-28.342Z" stroke="#DDDDDD" stroke-width="1.5"/>
<path d="M618.733 -28.342H590.226V0.173374H618.733V-28.342Z" stroke="#DDDDDD" stroke-width="1.5"/>
<path d="M647.239 -28.342H618.733V0.173374H647.239V-28.342Z" stroke="#DDDDDD" stroke-width="1.5"/>
<path d="M675.745 -28.342H647.239V0.173374H675.745V-28.342Z" stroke="#DDDDDD" stroke-width="1.5"/>
<path d="M704.252 -28.342H675.745V0.173374H704.252V-28.342Z" stroke="#DDDDDD" stroke-width="1.5"/>
<path d="M732.758 -28.342H704.252V0.173374H732.758V-28.342Z" fill="#E2E7F0" fill-opacity="0.3" stroke="#DDDDDD" stroke-width="1.5"/>
<path d="M761.265 -28.342H732.758V0.173374H761.265V-28.342Z" stroke="#DDDDDD" stroke-width="1.5"/>
<path d="M789.771 -28.342H761.265V0.173374H789.771V-28.342Z" stroke="#DDDDDD" stroke-width="1.5"/>
<path d="M818.278 -28.342H789.771V0.173374H818.278V-28.342Z" fill="#E2E7F0" fill-opacity="0.3" stroke="#DDDDDD" stroke-width="1.5"/>
<path d="M846.784 -28.342H818.278V0.173374H846.784V-28.342Z" stroke="#DDDDDD" stroke-width="1.5"/>
<path d="M875.291 -28.342H846.784V0.173374H875.291V-28.342Z" stroke="#DDDDDD" stroke-width="1.5"/>
<path d="M903.797 -28.342H875.291V0.173374H903.797V-28.342Z" stroke="#DDDDDD" stroke-width="1.5"/>
<path d="M932.304 -28.342H903.797V0.173374H932.304V-28.342Z" stroke="#DDDDDD" stroke-width="1.5"/>
<path d="M960.81 -28.342H932.304V0.173374H960.81V-28.342Z" stroke="#DDDDDD" stroke-width="1.5"/>
<path d="M989.317 -28.342H960.81V0.173374H989.317V-28.342Z" stroke="#DDDDDD" stroke-width="1.5"/>
<path d="M1017.82 -28.342H989.317V0.173374H1017.82V-28.342Z" stroke="#DDDDDD" stroke-width="1.5"/>
<path d="M1046.33 -28.342H1017.82V0.173374H1046.33V-28.342Z" stroke="#DDDDDD" stroke-width="1.5"/>
<path d="M1074.84 -28.342H1046.33V0.173374H1074.84V-28.342Z" fill="#E2E7F0" fill-opacity="0.3" stroke="#DDDDDD" stroke-width="1.5"/>
<path d="M20.0967 0.173374H-8.40979V28.6887H20.0967V0.173374Z" stroke="#DDDDDD" stroke-width="1.5"/>
<path d="M48.6031 0.173374H20.0967V28.6887H48.6031V0.173374Z" stroke="#DDDDDD" stroke-width="1.5"/>
<path d="M77.1096 0.173374H48.6031V28.6887H77.1096V0.173374Z" stroke="#DDDDDD" stroke-width="1.5"/>
<path d="M105.616 0.173374H77.1096V28.6887H105.616V0.173374Z" stroke="#DDDDDD" stroke-width="1.5"/>
<path d="M134.123 0.173374H105.616V28.6887H134.123V0.173374Z" stroke="#DDDDDD" stroke-width="1.5"/>
<path d="M162.629 0.173374H134.123V28.6887H162.629V0.173374Z" stroke="#DDDDDD" stroke-width="1.5"/>
<path d="M191.135 0.173374H162.629V28.6887H191.135V0.173374Z" fill="#E2E7F0" fill-opacity="0.3" stroke="#DDDDDD" stroke-width="1.5"/>
<path d="M219.642 0.173374H191.136V28.6887H219.642V0.173374Z" stroke="#DDDDDD" stroke-width="1.5"/>
<path d="M333.668 0.173374H305.161V28.6887H333.668V0.173374Z" stroke="#DDDDDD" stroke-width="1.5"/>
<path d="M362.174 0.173374H333.668V28.6887H362.174V0.173374Z" stroke="#DDDDDD" stroke-width="1.5"/>
<path d="M390.681 0.173374H362.174V28.6887H390.681V0.173374Z" stroke="#DDDDDD" stroke-width="1.5"/>
<path d="M419.187 0.173374H390.681V28.6887H419.187V0.173374Z" stroke="#DDDDDD" stroke-width="1.5"/>
<path d="M447.694 0.173374H419.187V28.6887H447.694V0.173374Z" stroke="#DDDDDD" stroke-width="1.5"/>
<path d="M476.2 0.173374H447.694V28.6887H476.2V0.173374Z" stroke="#DDDDDD" stroke-width="1.5"/>
<path d="M903.797 0.173374H875.291V28.6887H903.797V0.173374Z" stroke="#DDDDDD" stroke-width="1.5"/>
<path d="M932.304 0.173374H903.797V28.6887H932.304V0.173374Z" fill="#E2E7F0" fill-opacity="0.3" stroke="#DDDDDD" stroke-width="1.5"/>
<path d="M960.81 0.173374H932.304V28.6887H960.81V0.173374Z" stroke="#DDDDDD" stroke-width="1.5"/>
<path d="M989.317 0.173374H960.81V28.6887H989.317V0.173374Z" stroke="#DDDDDD" stroke-width="1.5"/>
<path d="M1017.82 0.173374H989.317V28.6887H1017.82V0.173374Z" stroke="#DDDDDD" stroke-width="1.5"/>
<path d="M1046.33 0.173374H1017.82V28.6887H1046.33V0.173374Z" stroke="#DDDDDD" stroke-width="1.5"/>
<path d="M1074.84 0.173374H1046.33V28.6887H1074.84V0.173374Z" stroke="#DDDDDD" stroke-width="1.5"/>
<path d="M20.0967 28.6887H-8.40979V57.204H20.0967V28.6887Z" stroke="#DDDDDD" stroke-width="1.5"/>
<path d="M48.6031 28.6887H20.0967V57.204H48.6031V28.6887Z" stroke="#DDDDDD" stroke-width="1.5"/>
<path d="M77.1096 28.6887H48.6031V57.204H77.1096V28.6887Z" stroke="#DDDDDD" stroke-width="1.5"/>
<path d="M105.616 28.6887H77.1096V57.204H105.616V28.6887Z" stroke="#DDDDDD" stroke-width="1.5"/>
<path d="M134.123 28.6887H105.616V57.204H134.123V28.6887Z" stroke="#DDDDDD" stroke-width="1.5"/>
<path d="M162.629 28.6887H134.123V57.204H162.629V28.6887Z" stroke="#DDDDDD" stroke-width="1.5"/>
<path d="M333.668 28.6887H305.161V57.204H333.668V28.6887Z" stroke="#DDDDDD" stroke-width="1.5"/>
<path d="M618.733 28.6887H590.226V57.204H618.733V28.6887Z" stroke="#DDDDDD" stroke-width="1.5"/>
<path d="M647.239 28.6887H618.733V57.204H647.239V28.6887Z" stroke="#DDDDDD" stroke-width="1.5"/>
<path d="M675.745 28.6887H647.239V57.204H675.745V28.6887Z" stroke="#DDDDDD" stroke-width="1.5"/>
<path d="M704.252 28.6887H675.745V57.204H704.252V28.6887Z" stroke="#DDDDDD" stroke-width="1.5"/>
<path d="M732.758 28.6887H704.252V57.204H732.758V28.6887Z" stroke="#DDDDDD" stroke-width="1.5"/>
<path d="M761.265 28.6887H732.758V57.204H761.265V28.6887Z" stroke="#DDDDDD" stroke-width="1.5"/>
<path d="M789.771 28.6887H761.265V57.204H789.771V28.6887Z" stroke="#DDDDDD" stroke-width="1.5"/>
<path d="M960.81 28.6887H932.304V57.204H960.81V28.6887Z" stroke="#DDDDDD" stroke-width="1.5"/>
<path d="M989.317 28.6887H960.81V57.204H989.317V28.6887Z" stroke="#DDDDDD" stroke-width="1.5"/>
<path d="M1017.82 28.6887H989.317V57.204H1017.82V28.6887Z" stroke="#DDDDDD" stroke-width="1.5"/>
<path d="M1046.33 28.6887H1017.82V57.204H1046.33V28.6887Z" stroke="#DDDDDD" stroke-width="1.5"/>
<path d="M1074.84 28.6887H1046.33V57.204H1074.84V28.6887Z" stroke="#DDDDDD" stroke-width="1.5"/>
<path d="M20.0967 57.204H-8.40979V85.7193H20.0967V57.204Z" stroke="#DDDDDD" stroke-width="1.5"/>
<path d="M48.6031 57.204H20.0967V85.7193H48.6031V57.204Z" stroke="#DDDDDD" stroke-width="1.5"/>
<path d="M77.1096 57.204H48.6031V85.7193H77.1096V57.204Z" stroke="#DDDDDD" stroke-width="1.5"/>
<path d="M105.616 57.204H77.1096V85.7193H105.616V57.204Z" stroke="#DDDDDD" stroke-width="1.5"/>
<path d="M134.123 57.204H105.616V85.7193H134.123V57.204Z" stroke="#DDDDDD" stroke-width="1.5"/>
<path d="M162.629 57.204H134.123V85.7193H162.629V57.204Z" stroke="#DDDDDD" stroke-width="1.5"/>
<path d="M191.135 57.204H162.629V85.7193H191.135V57.204Z" stroke="#DDDDDD" stroke-width="1.5"/>
<path d="M219.642 57.204H191.136V85.7193H219.642V57.204Z" stroke="#DDDDDD" stroke-width="1.5"/>
<path d="M789.771 57.204H761.265V85.7193H789.771V57.204Z" stroke="#DDDDDD" stroke-width="1.5"/>
<path d="M846.784 57.204H818.278V85.7193H846.784V57.204Z" fill="#E2E7F0" fill-opacity="0.3" stroke="#DDDDDD" stroke-width="1.5"/>
<path d="M875.291 57.204H846.784V85.7193H875.291V57.204Z" stroke="#DDDDDD" stroke-width="1.5"/>
<path d="M903.797 57.204H875.291V85.7193H903.797V57.204Z" stroke="#DDDDDD" stroke-width="1.5"/>
<path d="M932.304 57.204H903.797V85.7193H932.304V57.204Z" stroke="#DDDDDD" stroke-width="1.5"/>
<path d="M960.81 57.204H932.304V85.7193H960.81V57.204Z" stroke="#DDDDDD" stroke-width="1.5"/>
<path d="M989.317 57.204H960.81V85.7193H989.317V57.204Z" fill="#E2E7F0" fill-opacity="0.3" stroke="#DDDDDD" stroke-width="1.5"/>
<path d="M1017.82 57.204H989.317V85.7193H1017.82V57.204Z" stroke="#DDDDDD" stroke-width="1.5"/>
<path d="M1046.33 57.204H1017.82V85.7193H1046.33V57.204Z" stroke="#DDDDDD" stroke-width="1.5"/>
<path d="M1074.84 57.204H1046.33V85.7193H1074.84V57.204Z" fill="#E2E7F0" fill-opacity="0.3" stroke="#DDDDDD" stroke-width="1.5"/>
<path d="M20.0967 85.7193H-8.40979V114.235H20.0967V85.7193Z" stroke="#DDDDDD" stroke-width="1.5"/>
<path d="M48.6031 85.7193H20.0967V114.235H48.6031V85.7193Z" fill="#E2E7F0" fill-opacity="0.3" stroke="#DDDDDD" stroke-width="1.5"/>
<path d="M77.1096 85.7193H48.6031V114.235H77.1096V85.7193Z" stroke="#DDDDDD" stroke-width="1.5"/>
<path d="M191.135 85.7193H162.629V114.235H191.135V85.7193Z" fill="#E2E7F0" fill-opacity="0.3" stroke="#DDDDDD" stroke-width="1.5"/>
<path d="M219.642 85.7193H191.136V114.235H219.642V85.7193Z" stroke="#DDDDDD" stroke-width="1.5"/>
<path d="M276.655 85.7193H248.148V114.235H276.655V85.7193Z" stroke="#DDDDDD" stroke-width="1.5"/>
<path d="M789.771 85.7193H761.265V114.235H789.771V85.7193Z" stroke="#DDDDDD" stroke-width="1.5"/>
<path d="M818.278 85.7193H789.771V114.235H818.278V85.7193Z" stroke="#DDDDDD" stroke-width="1.5"/>
<path d="M903.797 85.7193H875.291V114.235H903.797V85.7193Z" stroke="#DDDDDD" stroke-width="1.5"/>
<path d="M932.304 85.7193H903.797V114.235H932.304V85.7193Z" stroke="#DDDDDD" stroke-width="1.5"/>
<path d="M960.81 85.7193H932.304V114.235H960.81V85.7193Z" stroke="#DDDDDD" stroke-width="1.5"/>
<path d="M1074.84 85.7193H1046.33V114.235H1074.84V85.7193Z" stroke="#DDDDDD" stroke-width="1.5"/>
<path d="M20.0967 114.235H-8.40979V142.75H20.0967V114.235Z" stroke="#DDDDDD" stroke-width="1.5"/>
<path d="M48.6031 114.235H20.0967V142.75H48.6031V114.235Z" stroke="#DDDDDD" stroke-width="1.5"/>
<path d="M77.1096 114.235H48.6031V142.75H77.1096V114.235Z" stroke="#DDDDDD" stroke-width="1.5"/>
<path d="M105.616 114.235H77.1096V142.75H105.616V114.235Z" stroke="#DDDDDD" stroke-width="1.5"/>
<path d="M134.123 114.235H105.616V142.75H134.123V114.235Z" stroke="#DDDDDD" stroke-width="1.5"/>
<path d="M162.629 114.235H134.123V142.75H162.629V114.235Z" stroke="#DDDDDD" stroke-width="1.5"/>
<path d="M305.161 114.235H276.655V142.75H305.161V114.235Z" stroke="#DDDDDD" stroke-width="1.5"/>
<path d="M333.668 114.235H305.161V142.75H333.668V114.235Z" stroke="#DDDDDD" stroke-width="1.5"/>
<path d="M618.733 114.235H590.226V142.75H618.733V114.235Z" stroke="#DDDDDD" stroke-width="1.5"/>
<path d="M647.239 114.235H618.733V142.75H647.239V114.235Z" stroke="#DDDDDD" stroke-width="1.5"/>
<path d="M675.745 114.235H647.239V142.75H675.745V114.235Z" stroke="#DDDDDD" stroke-width="1.5"/>
<path d="M704.252 114.235H675.745V142.75H704.252V114.235Z" stroke="#DDDDDD" stroke-width="1.5"/>
<path d="M732.758 114.235H704.252V142.75H732.758V114.235Z" stroke="#DDDDDD" stroke-width="1.5"/>
<path d="M761.265 114.235H732.758V142.75H761.265V114.235Z" stroke="#DDDDDD" stroke-width="1.5"/>
<path d="M818.278 114.235H789.771V142.75H818.278V114.235Z" stroke="#DDDDDD" stroke-width="1.5"/>
<path d="M846.784 114.235H818.278V142.75H846.784V114.235Z" fill="#E2E7F0" fill-opacity="0.3" stroke="#DDDDDD" stroke-width="1.5"/>
<path d="M960.81 114.235H932.304V142.75H960.81V114.235Z" stroke="#DDDDDD" stroke-width="1.5"/>
<path d="M989.317 114.235H960.81V142.75H989.317V114.235Z" stroke="#DDDDDD" stroke-width="1.5"/>
<path d="M1017.82 114.235H989.317V142.75H1017.82V114.235Z" stroke="#DDDDDD" stroke-width="1.5"/>
<path d="M1046.33 114.235H1017.82V142.75H1046.33V114.235Z" stroke="#DDDDDD" stroke-width="1.5"/>
<path d="M1074.84 114.235H1046.33V142.75H1074.84V114.235Z" stroke="#DDDDDD" stroke-width="1.5"/>
<path d="M20.0967 142.75H-8.40979V171.265H20.0967V142.75Z" stroke="#DDDDDD" stroke-width="1.5"/>
<path d="M48.6031 142.75H20.0967V171.265H48.6031V142.75Z" stroke="#DDDDDD" stroke-width="1.5"/>
<path d="M77.1096 142.75H48.6031V171.265H77.1096V142.75Z" stroke="#DDDDDD" stroke-width="1.5"/>
<path d="M105.616 142.75H77.1096V171.265H105.616V142.75Z" stroke="#DDDDDD" stroke-width="1.5"/>
<path d="M134.123 142.75H105.616V171.265H134.123V142.75Z" stroke="#DDDDDD" stroke-width="1.5"/>
<path d="M162.629 142.75H134.123V171.265H162.629V142.75Z" stroke="#DDDDDD" stroke-width="1.5"/>
<path d="M191.135 142.75H162.629V171.265H191.135V142.75Z" stroke="#DDDDDD" stroke-width="1.5"/>
<path d="M219.642 142.75H191.136V171.265H219.642V142.75Z" stroke="#DDDDDD" stroke-width="1.5"/>
<path d="M875.291 142.75H846.784V171.265H875.291V142.75Z" stroke="#DDDDDD" stroke-width="1.5"/>
<path d="M903.797 142.75H875.291V171.265H903.797V142.75Z" stroke="#DDDDDD" stroke-width="1.5"/>
<path d="M932.304 142.75H903.797V171.265H932.304V142.75Z" stroke="#DDDDDD" stroke-width="1.5"/>
<path d="M960.81 142.75H932.304V171.265H960.81V142.75Z" stroke="#DDDDDD" stroke-width="1.5"/>
<path d="M989.317 142.75H960.81V171.265H989.317V142.75Z" fill="#E2E7F0" fill-opacity="0.3" stroke="#DDDDDD" stroke-width="1.5"/>
<path d="M1017.82 142.75H989.317V171.265H1017.82V142.75Z" stroke="#DDDDDD" stroke-width="1.5"/>
<path d="M1046.33 142.75H1017.82V171.265H1046.33V142.75Z" stroke="#DDDDDD" stroke-width="1.5"/>
<path d="M1074.84 142.75H1046.33V171.265H1074.84V142.75Z" stroke="#DDDDDD" stroke-width="1.5"/>
<path d="M20.0967 171.265H-8.40979V199.781H20.0967V171.265Z" fill="#E2E7F0" fill-opacity="0.3" stroke="#DDDDDD" stroke-width="1.5"/>
<path d="M48.6031 171.265H20.0967V199.781H48.6031V171.265Z" stroke="#DDDDDD" stroke-width="1.5"/>
<path d="M77.1096 171.265H48.6031V199.781H77.1096V171.265Z" stroke="#DDDDDD" stroke-width="1.5"/>
<path d="M191.135 171.265H162.629V199.781H191.135V171.265Z" fill="#E2E7F0" fill-opacity="0.3" stroke="#DDDDDD" stroke-width="1.5"/>
<path d="M219.642 171.265H191.136V199.781H219.642V171.265Z" stroke="#DDDDDD" stroke-width="1.5"/>
<path d="M276.655 171.265H248.148V199.781H276.655V171.265Z" stroke="#DDDDDD" stroke-width="1.5"/>
<path d="M305.161 171.265H276.655V199.781H305.161V171.265Z" stroke="#DDDDDD" stroke-width="1.5"/>
<path d="M846.784 171.265H818.278V199.781H846.784V171.265Z" stroke="#DDDDDD" stroke-width="1.5"/>
<path d="M875.291 171.265H846.784V199.781H875.291V171.265Z" fill="#E2E7F0" fill-opacity="0.3" stroke="#DDDDDD" stroke-width="1.5"/>
<path d="M903.797 171.265H875.291V199.781H903.797V171.265Z" stroke="#DDDDDD" stroke-width="1.5"/>
<path d="M932.304 171.265H903.797V199.781H932.304V171.265Z" stroke="#DDDDDD" stroke-width="1.5"/>
<path d="M960.81 171.265H932.304V199.781H960.81V171.265Z" stroke="#DDDDDD" stroke-width="1.5"/>
<path d="M1074.84 171.265H1046.33V199.781H1074.84V171.265Z" stroke="#DDDDDD" stroke-width="1.5"/>
<path d="M20.0967 199.781H-8.40979V228.296H20.0967V199.781Z" stroke="#DDDDDD" stroke-width="1.5"/>
<path d="M48.6031 199.781H20.0967V228.296H48.6031V199.781Z" stroke="#DDDDDD" stroke-width="1.5"/>
<path d="M77.1096 199.781H48.6031V228.296H77.1096V199.781Z" stroke="#DDDDDD" stroke-width="1.5"/>
<path d="M105.616 199.781H77.1096V228.296H105.616V199.781Z" stroke="#DDDDDD" stroke-width="1.5"/>
<path d="M134.123 199.781H105.616V228.296H134.123V199.781Z" stroke="#DDDDDD" stroke-width="1.5"/>
<path d="M162.629 199.781H134.123V228.296H162.629V199.781Z" fill="#E2E7F0" fill-opacity="0.3" stroke="#DDDDDD" stroke-width="1.5"/>
<path d="M305.161 199.781H276.655V228.296H305.161V199.781Z" stroke="#DDDDDD" stroke-width="1.5"/>
<path d="M333.668 199.781H305.161V228.296H333.668V199.781Z" stroke="#DDDDDD" stroke-width="1.5"/>
<path d="M618.733 199.781H590.226V228.296H618.733V199.781Z" stroke="#DDDDDD" stroke-width="1.5"/>
<path d="M647.239 199.781H618.733V228.296H647.239V199.781Z" stroke="#DDDDDD" stroke-width="1.5"/>
<path d="M675.745 199.781H647.239V228.296H675.745V199.781Z" stroke="#DDDDDD" stroke-width="1.5"/>
<path d="M704.252 199.781H675.745V228.296H704.252V199.781Z" stroke="#DDDDDD" stroke-width="1.5"/>
<path d="M732.758 199.781H704.252V228.296H732.758V199.781Z" stroke="#DDDDDD" stroke-width="1.5"/>
<path d="M761.265 199.781H732.758V228.296H761.265V199.781Z" stroke="#DDDDDD" stroke-width="1.5"/>
<path d="M789.771 199.781H761.265V228.296H789.771V199.781Z" stroke="#DDDDDD" stroke-width="1.5"/>
<path d="M818.278 199.781H789.771V228.296H818.278V199.781Z" stroke="#DDDDDD" stroke-width="1.5"/>
<path d="M989.317 199.781H960.81V228.296H989.317V199.781Z" stroke="#DDDDDD" stroke-width="1.5"/>
<path d="M1017.82 199.781H989.317V228.296H1017.82V199.781Z" stroke="#DDDDDD" stroke-width="1.5"/>
<path d="M1046.33 199.781H1017.82V228.296H1046.33V199.781Z" stroke="#DDDDDD" stroke-width="1.5"/>
<path d="M1074.84 199.781H1046.33V228.296H1074.84V199.781Z" stroke="#DDDDDD" stroke-width="1.5"/>
<path d="M20.0967 228.296H-8.40979V256.811H20.0967V228.296Z" stroke="#DDDDDD" stroke-width="1.5"/>
<path d="M48.6031 228.296H20.0967V256.811H48.6031V228.296Z" stroke="#DDDDDD" stroke-width="1.5"/>
<path d="M77.1096 228.296H48.6031V256.811H77.1096V228.296Z" stroke="#DDDDDD" stroke-width="1.5"/>
<path d="M105.616 228.296H77.1096V256.811H105.616V228.296Z" fill="#E2E7F0" fill-opacity="0.3" stroke="#DDDDDD" stroke-width="1.5"/>
<path d="M134.123 228.296H105.616V256.811H134.123V228.296Z" stroke="#DDDDDD" stroke-width="1.5"/>
<path d="M162.629 228.296H134.123V256.811H162.629V228.296Z" stroke="#DDDDDD" stroke-width="1.5"/>
<path d="M191.135 228.296H162.629V256.811H191.135V228.296Z" stroke="#DDDDDD" stroke-width="1.5"/>
<path d="M219.642 228.296H191.136V256.811H219.642V228.296Z" stroke="#DDDDDD" stroke-width="1.5"/>
<path d="M305.161 228.296H276.655V256.811H305.161V228.296Z" stroke="#DDDDDD" stroke-width="1.5"/>
<path d="M818.278 228.296H789.771V256.811H818.278V228.296Z" stroke="#DDDDDD" stroke-width="1.5"/>
<path d="M846.784 228.296H818.278V256.811H846.784V228.296Z" stroke="#DDDDDD" stroke-width="1.5"/>
<path d="M989.317 228.296H960.81V256.811H989.317V228.296Z" stroke="#DDDDDD" stroke-width="1.5"/>
<path d="M1017.82 228.296H989.317V256.811H1017.82V228.296Z" stroke="#DDDDDD" stroke-width="1.5"/>
<path d="M1046.33 228.296H1017.82V256.811H1046.33V228.296Z" fill="#E2E7F0" fill-opacity="0.3" stroke="#DDDDDD" stroke-width="1.5"/>
<path d="M1074.84 228.296H1046.33V256.811H1074.84V228.296Z" stroke="#DDDDDD" stroke-width="1.5"/>
<path d="M20.0967 256.811H-8.40979V285.327H20.0967V256.811Z" stroke="#DDDDDD" stroke-width="1.5"/>
<path d="M105.616 256.811H77.1096V285.327H105.616V256.811Z" stroke="#DDDDDD" stroke-width="1.5"/>
<path d="M191.135 256.811H162.629V285.327H191.135V256.811Z" stroke="#DDDDDD" stroke-width="1.5"/>
<path d="M219.642 256.811H191.136V285.327H219.642V256.811Z" fill="#E2E7F0" fill-opacity="0.3" stroke="#DDDDDD" stroke-width="1.5"/>
<path d="M333.668 256.811H305.161V285.327H333.668V256.811Z" stroke="#DDDDDD" stroke-width="1.5"/>
<path d="M362.174 256.811H333.668V285.327H362.174V256.811Z" stroke="#DDDDDD" stroke-width="1.5"/>
<path d="M390.681 256.811H362.174V285.327H390.681V256.811Z" stroke="#DDDDDD" stroke-width="1.5"/>
<path d="M419.187 256.811H390.681V285.327H419.187V256.811Z" fill="#E2E7F0" fill-opacity="0.3" stroke="#DDDDDD" stroke-width="1.5"/>
<path d="M447.694 256.811H419.187V285.327H447.694V256.811Z" stroke="#DDDDDD" stroke-width="1.5"/>
<path d="M476.2 256.811H447.694V285.327H476.2V256.811Z" stroke="#DDDDDD" stroke-width="1.5"/>
<path d="M789.771 256.811H761.265V285.327H789.771V256.811Z" stroke="#DDDDDD" stroke-width="1.5"/>
<path opacity="0.99" d="M818.278 256.811H789.771V285.327H818.278V256.811Z" stroke="#DDDDDD" stroke-width="1.5"/>
<path d="M903.797 256.811H875.291V285.327H903.797V256.811Z" stroke="#DDDDDD" stroke-width="1.5"/>
<path d="M932.304 256.811H903.797V285.327H932.304V256.811Z" stroke="#DDDDDD" stroke-width="1.5"/>
<path d="M960.81 256.811H932.304V285.327H960.81V256.811Z" stroke="#DDDDDD" stroke-width="1.5"/>
<path d="M1074.84 256.811H1046.33V285.327H1074.84V256.811Z" stroke="#DDDDDD" stroke-width="1.5"/>
<path d="M20.0967 285.327H-8.40979V313.842H20.0967V285.327Z" stroke="#DDDDDD" stroke-width="1.5"/>
<path d="M48.6031 285.327H20.0967V313.842H48.6031V285.327Z" stroke="#DDDDDD" stroke-width="1.5"/>
<path d="M77.1096 285.327H48.6031V313.842H77.1096V285.327Z" stroke="#DDDDDD" stroke-width="1.5"/>
<path d="M105.616 285.327H77.1096V313.842H105.616V285.327Z" stroke="#DDDDDD" stroke-width="1.5"/>
<path d="M134.123 285.327H105.616V313.842H134.123V285.327Z" stroke="#DDDDDD" stroke-width="1.5"/>
<path d="M419.187 285.327H390.681V313.842H419.187V285.327Z" stroke="#DDDDDD" stroke-width="1.5"/>
<path d="M447.694 285.327H419.187V313.842H447.694V285.327Z" stroke="#DDDDDD" stroke-width="1.5"/>
<path d="M476.2 285.327H447.694V313.842H476.2V285.327Z" stroke="#DDDDDD" stroke-width="1.5"/>
<path d="M675.745 285.327H647.239V313.842H675.745V285.327Z" stroke="#DDDDDD" stroke-width="1.5"/>
<path d="M704.252 285.327H675.745V313.842H704.252V285.327Z" stroke="#DDDDDD" stroke-width="1.5"/>
<path d="M732.758 285.327H704.252V313.842H732.758V285.327Z" stroke="#DDDDDD" stroke-width="1.5"/>
<path d="M761.265 285.327H732.758V313.842H761.265V285.327Z" stroke="#DDDDDD" stroke-width="1.5"/>
<path d="M789.771 285.327H761.265V313.842H789.771V285.327Z" fill="#E2E7F0" fill-opacity="0.3" stroke="#DDDDDD" stroke-width="1.5"/>
<path d="M818.278 285.327H789.771V313.842H818.278V285.327Z" stroke="#DDDDDD" stroke-width="1.5"/>
<path d="M846.784 285.327H818.278V313.842H846.784V285.327Z" stroke="#DDDDDD" stroke-width="1.5"/>
<path d="M903.797 285.327H875.291V313.842H903.797V285.327Z" stroke="#DDDDDD" stroke-width="1.5"/>
<path d="M932.304 285.327H903.797V313.842H932.304V285.327Z" stroke="#DDDDDD" stroke-width="1.5"/>
<path d="M960.81 285.327H932.304V313.842H960.81V285.327Z" stroke="#DDDDDD" stroke-width="1.5"/>
<path d="M989.317 285.327H960.81V313.842H989.317V285.327Z" fill="#E2E7F0" fill-opacity="0.3" stroke="#DDDDDD" stroke-width="1.5"/>
<path d="M1017.82 285.327H989.317V313.842H1017.82V285.327Z" stroke="#DDDDDD" stroke-width="1.5"/>
<path d="M1046.33 285.327H1017.82V313.842H1046.33V285.327Z" stroke="#DDDDDD" stroke-width="1.5"/>
<path d="M1074.84 285.327H1046.33V313.842H1074.84V285.327Z" stroke="#DDDDDD" stroke-width="1.5"/>
<path d="M20.0967 313.842H-8.40979V342.357H20.0967V313.842Z" stroke="#DDDDDD" stroke-width="1.5"/>
<path d="M48.6031 313.842H20.0967V342.357H48.6031V313.842Z" stroke="#DDDDDD" stroke-width="1.5"/>
<path d="M77.1096 313.842H48.6031V342.357H77.1096V313.842Z" fill="#E2E7F0" fill-opacity="0.3" stroke="#DDDDDD" stroke-width="1.5"/>
<path d="M105.616 313.842H77.1096V342.357H105.616V313.842Z" stroke="#DDDDDD" stroke-width="1.5"/>
<path d="M134.123 313.842H105.616V342.357H134.123V313.842Z" stroke="#DDDDDD" stroke-width="1.5"/>
<path d="M162.629 313.842H134.123V342.357H162.629V313.842Z" stroke="#DDDDDD" stroke-width="1.5"/>
<path d="M191.135 313.842H162.629V342.357H191.135V313.842Z" stroke="#DDDDDD" stroke-width="1.5"/>
<path d="M219.642 313.842H191.136V342.357H219.642V313.842Z" stroke="#DDDDDD" stroke-width="1.5"/>
<path d="M248.148 313.842H219.642V342.357H248.148V313.842Z" stroke="#DDDDDD" stroke-width="1.5"/>
<path d="M276.655 313.842H248.148V342.357H276.655V313.842Z" stroke="#DDDDDD" stroke-width="1.5"/>
<path d="M305.161 313.842H276.655V342.357H305.161V313.842Z" stroke="#DDDDDD" stroke-width="1.5"/>
<path d="M333.668 313.842H305.161V342.357H333.668V313.842Z" stroke="#DDDDDD" stroke-width="1.5"/>
<path d="M362.174 313.842H333.668V342.357H362.174V313.842Z" fill="#E2E7F0" fill-opacity="0.3" stroke="#DDDDDD" stroke-width="1.5"/>
<path d="M618.733 313.842H590.226V342.357H618.733V313.842Z" stroke="#DDDDDD" stroke-width="1.5"/>
<path d="M647.239 313.842H618.733V342.357H647.239V313.842Z" stroke="#DDDDDD" stroke-width="1.5"/>
<path d="M675.745 313.842H647.239V342.357H675.745V313.842Z" stroke="#DDDDDD" stroke-width="1.5"/>
<path d="M704.252 313.842H675.745V342.357H704.252V313.842Z" stroke="#DDDDDD" stroke-width="1.5"/>
<path d="M732.758 313.842H704.252V342.357H732.758V313.842Z" fill="#E2E7F0" fill-opacity="0.3" stroke="#DDDDDD" stroke-width="1.5"/>
<path d="M761.265 313.842H732.758V342.357H761.265V313.842Z" stroke="#DDDDDD" stroke-width="1.5"/>
<path d="M789.771 313.842H761.265V342.357H789.771V313.842Z" stroke="#DDDDDD" stroke-width="1.5"/>
<path d="M818.278 313.842H789.771V342.357H818.278V313.842Z" stroke="#DDDDDD" stroke-width="1.5"/>
<path d="M846.784 313.842H818.278V342.357H846.784V313.842Z" stroke="#DDDDDD" stroke-width="1.5"/>
<path d="M875.291 313.842H846.784V342.357H875.291V313.842Z" stroke="#DDDDDD" stroke-width="1.5"/>
<path d="M903.797 313.842H875.291V342.357H903.797V313.842Z" stroke="#DDDDDD" stroke-width="1.5"/>
<path d="M932.304 313.842H903.797V342.357H932.304V313.842Z" stroke="#DDDDDD" stroke-width="1.5"/>
<path d="M960.81 313.842H932.304V342.357H960.81V313.842Z" stroke="#DDDDDD" stroke-width="1.5"/>
<path d="M989.317 313.842H960.81V342.357H989.317V313.842Z" stroke="#DDDDDD" stroke-width="1.5"/>
<path d="M1017.82 313.842H989.317V342.357H1017.82V313.842Z" stroke="#DDDDDD" stroke-width="1.5"/>
<path d="M1046.33 313.842H1017.82V342.357H1046.33V313.842Z" stroke="#DDDDDD" stroke-width="1.5"/>
<path d="M1074.84 313.842H1046.33V342.357H1074.84V313.842Z" stroke="#DDDDDD" stroke-width="1.5"/>
<path d="M20.0967 342.357H-8.40979V370.873H20.0967V342.357Z" stroke="#DDDDDD" stroke-width="1.5"/>
<path d="M48.6031 342.357H20.0967V370.873H48.6031V342.357Z" stroke="#DDDDDD" stroke-width="1.5"/>
<path d="M77.1096 342.357H48.6031V370.873H77.1096V342.357Z" stroke="#DDDDDD" stroke-width="1.5"/>
<path d="M105.616 342.357H77.1096V370.873H105.616V342.357Z" stroke="#DDDDDD" stroke-width="1.5"/>
<path d="M134.123 342.357H105.616V370.873H134.123V342.357Z" stroke="#DDDDDD" stroke-width="1.5"/>
<path d="M162.629 342.357H134.123V370.873H162.629V342.357Z" fill="#E2E7F0" fill-opacity="0.3" stroke="#DDDDDD" stroke-width="1.5"/>
<path d="M305.161 342.357H276.655V370.873H305.161V342.357Z" stroke="#DDDDDD" stroke-width="1.5"/>
<path d="M333.668 342.357H305.161V370.873H333.668V342.357Z" stroke="#DDDDDD" stroke-width="1.5"/>
<path d="M618.733 342.357H590.226V370.873H618.733V342.357Z" stroke="#DDDDDD" stroke-width="1.5"/>
<path d="M647.239 342.357H618.733V370.873H647.239V342.357Z" stroke="#DDDDDD" stroke-width="1.5"/>
<path d="M675.745 342.357H647.239V370.873H675.745V342.357Z" stroke="#DDDDDD" stroke-width="1.5"/>
<path d="M704.252 342.357H675.745V370.873H704.252V342.357Z" stroke="#DDDDDD" stroke-width="1.5"/>
<path d="M732.758 342.357H704.252V370.873H732.758V342.357Z" stroke="#DDDDDD" stroke-width="1.5"/>
<path d="M761.265 342.357H732.758V370.873H761.265V342.357Z" stroke="#DDDDDD" stroke-width="1.5"/>
<path d="M789.771 342.357H761.265V370.873H789.771V342.357Z" stroke="#DDDDDD" stroke-width="1.5"/>
<path d="M818.278 342.357H789.771V370.873H818.278V342.357Z" stroke="#DDDDDD" stroke-width="1.5"/>
<path d="M989.317 342.357H960.81V370.873H989.317V342.357Z" stroke="#DDDDDD" stroke-width="1.5"/>
<path d="M1017.82 342.357H989.317V370.873H1017.82V342.357Z" stroke="#DDDDDD" stroke-width="1.5"/>
<path d="M1046.33 342.357H1017.82V370.873H1046.33V342.357Z" stroke="#DDDDDD" stroke-width="1.5"/>
<path d="M1074.84 342.357H1046.33V370.873H1074.84V342.357Z" stroke="#DDDDDD" stroke-width="1.5"/>
<path d="M20.0967 370.873H-8.40979V399.388H20.0967V370.873Z" stroke="#DDDDDD" stroke-width="1.5"/>
<path d="M48.6031 370.873H20.0967V399.388H48.6031V370.873Z" stroke="#DDDDDD" stroke-width="1.5"/>
<path d="M77.1096 370.873H48.6031V399.388H77.1096V370.873Z" stroke="#DDDDDD" stroke-width="1.5"/>
<path d="M105.616 370.873H77.1096V399.388H105.616V370.873Z" stroke="#DDDDDD" stroke-width="1.5"/>
<path d="M134.123 370.873H105.616V399.388H134.123V370.873Z" stroke="#DDDDDD" stroke-width="1.5"/>
<path d="M162.629 370.873H134.123V399.388H162.629V370.873Z" stroke="#DDDDDD" stroke-width="1.5"/>
<path d="M191.135 370.873H162.629V399.388H191.135V370.873Z" stroke="#DDDDDD" stroke-width="1.5"/>
<path d="M219.642 370.873H191.136V399.388H219.642V370.873Z" stroke="#DDDDDD" stroke-width="1.5"/>
<path d="M276.655 370.873H248.148V399.388H276.655V370.873Z" stroke="#DDDDDD" stroke-width="1.5"/>
<path d="M305.161 370.873H276.655V399.388H305.161V370.873Z" stroke="#DDDDDD" stroke-width="1.5"/>
<path d="M333.668 370.873H305.161V399.388H333.668V370.873Z" stroke="#DDDDDD" stroke-width="1.5"/>
<path d="M362.174 370.873H333.668V399.388H362.174V370.873Z" stroke="#DDDDDD" stroke-width="1.5"/>
<path d="M561.72 370.873H533.213V399.388H561.72V370.873Z" stroke="#DDDDDD" stroke-width="1.5"/>
<path d="M590.226 370.873H561.72V399.388H590.226V370.873Z" stroke="#DDDDDD" stroke-width="1.5"/>
<path d="M618.733 370.873H590.226V399.388H618.733V370.873Z" stroke="#DDDDDD" stroke-width="1.5"/>
<path d="M647.239 370.873H618.733V399.388H647.239V370.873Z" stroke="#DDDDDD" stroke-width="1.5"/>
<path d="M675.745 370.873H647.239V399.388H675.745V370.873Z" stroke="#DDDDDD" stroke-width="1.5"/>
<path d="M704.252 370.873H675.745V399.388H704.252V370.873Z" stroke="#DDDDDD" stroke-width="1.5"/>
<path d="M732.758 370.873H704.252V399.388H732.758V370.873Z" stroke="#DDDDDD" stroke-width="1.5"/>
<path d="M789.771 370.873H761.265V399.388H789.771V370.873Z" stroke="#DDDDDD" stroke-width="1.5"/>
<path d="M846.784 370.873H818.278V399.388H846.784V370.873Z" fill="#E2E7F0" fill-opacity="0.3" stroke="#DDDDDD" stroke-width="1.5"/>
<path d="M875.291 370.873H846.784V399.388H875.291V370.873Z" stroke="#DDDDDD" stroke-width="1.5"/>
<path d="M1046.33 370.873H1017.82V399.388H1046.33V370.873Z" stroke="#DDDDDD" stroke-width="1.5"/>
<path d="M1074.84 370.873H1046.33V399.388H1074.84V370.873Z" fill="#E2E7F0" fill-opacity="0.3" stroke="#DDDDDD" stroke-width="1.5"/>
<path d="M20.0967 427.903V399.388H-8.40979V427.903" stroke="#DDDDDD" stroke-width="1.5"/>
<path d="M48.6031 427.903V399.388H20.0967V427.903" stroke="#DDDDDD" stroke-width="1.5"/>
<path d="M77.1096 427.903V399.388H48.6031V427.903" stroke="#DDDDDD" stroke-width="1.5"/>
<path d="M105.616 427.903V399.388H77.1096V427.903" stroke="#DDDDDD" stroke-width="1.5"/>
<path d="M134.123 427.903V399.388H105.616V427.903" stroke="#DDDDDD" stroke-width="1.5"/>
<path d="M162.629 427.903V399.388H134.123V427.903" stroke="#DDDDDD" stroke-width="1.5"/>
<path d="M333.668 427.903V399.388H305.161V427.903" stroke="#DDDDDD" stroke-width="1.5"/>
<path d="M362.174 427.903V399.388H333.668V427.903" stroke="#DDDDDD" stroke-width="1.5"/>
<path d="M390.681 427.903V399.388H362.174V427.903" stroke="#DDDDDD" stroke-width="1.5"/>
<path d="M419.187 427.903V399.388H390.681V427.903" stroke="#DDDDDD" stroke-width="1.5"/>
<path d="M447.694 427.903V399.388H419.187V427.903" stroke="#DDDDDD" stroke-width="1.5"/>
<path d="M476.2 427.903V399.388H447.694V427.903" stroke="#DDDDDD" stroke-width="1.5"/>
<path d="M903.797 427.903V399.388H875.291V427.903" stroke="#DDDDDD" stroke-width="1.5"/>
<path d="M932.304 427.903V399.388H903.797V427.903" stroke="#DDDDDD" stroke-width="1.5"/>
<path d="M960.81 427.903V399.388H932.304V427.903" stroke="#DDDDDD" stroke-width="1.5"/>
<path d="M989.317 427.903V399.388H960.81V427.903" stroke="#DDDDDD" stroke-width="1.5"/>
<path d="M1017.82 427.903V399.388H989.317V427.903" stroke="#DDDDDD" stroke-width="1.5"/>
<path d="M1046.33 427.903V399.388H1017.82V427.903" stroke="#DDDDDD" stroke-width="1.5"/>
<path d="M1074.84 427.903V399.388H1046.33V427.903" stroke="#DDDDDD" stroke-width="1.5"/>
<path d="M20.1844 116.428L20.1844 169.072" stroke="url(#paint0_linear_301_3)" stroke-width="1.5" stroke-linecap="round" stroke-linejoin="round"/>
<g filter="url(#filter0_d_301_3)">
<path d="M932.304 177.407V124.763" stroke="url(#paint1_linear_301_3)" stroke-width="1.5" stroke-linecap="round" stroke-linejoin="round"/>
<path d="M162.629 200V147.356" stroke="url(#paint2_linear_301_3)" stroke-width="1.5" stroke-linecap="round" stroke-linejoin="round"/>
<path d="M219.707 58.3961L219.707 111.04" stroke="url(#paint3_linear_301_3)" stroke-width="1.5" stroke-linecap="round" stroke-linejoin="round"/>
<path d="M789.805 58.3961L789.805 111.04" stroke="url(#paint4_linear_301_3)" stroke-width="1.5" stroke-linecap="round" stroke-linejoin="round"/>
</g>
<rect x="263.702" width="539.022" height="399.388" fill="url(#paint5_radial_301_3)"/>
</g>
<path d="M88.2254 347.348L79.6601 332.539C79.2674 331.859 78.2996 331.302 77.5094 331.302H72.162C70.919 331.302 70.4094 330.427 71.0294 329.358L73.9619 324.301C74.1947 323.9 74.1941 323.406 73.9606 323.005C73.7271 322.604 73.2959 322.357 72.8294 322.357H65.3696C64.5794 322.357 63.6094 322.913 63.214 323.592L48.7183 348.488C48.323 349.167 48.3227 350.279 48.7178 350.958L52.4476 357.37C53.0691 358.439 54.0882 358.44 54.7123 357.373L57.6269 352.391C58.251 351.324 59.2701 351.326 59.8915 352.394L62.5337 356.936C62.9288 357.616 63.8986 358.171 64.6888 358.171H81.9267C82.7169 358.171 83.6866 357.616 84.0818 356.936L88.2211 349.82C88.6162 349.141 88.6181 348.028 88.2254 347.348ZM76.658 346.635C77.2756 347.706 76.7639 348.582 75.5211 348.582H62.1127C60.8698 348.582 60.3613 347.707 60.9828 346.639L67.6922 335.104C68.3137 334.036 69.3305 334.036 69.9519 335.104L76.658 346.635Z" fill="#20294F"/>
<path d="M388.211 181.137C385.705 181.137 383.489 180.728 381.563 179.909C379.654 179.074 378.154 177.813 377.063 176.125C375.972 174.438 375.427 172.29 375.427 169.682C375.427 167.534 375.793 165.702 376.526 164.185C377.259 162.651 378.282 161.398 379.594 160.426C380.907 159.455 382.432 158.713 384.171 158.202C385.927 157.691 387.819 157.358 389.847 157.205C392.046 157.034 393.81 156.83 395.14 156.591C396.486 156.336 397.458 155.986 398.054 155.543C398.651 155.083 398.949 154.478 398.949 153.728V153.625C398.949 152.603 398.557 151.818 397.773 151.273C396.989 150.728 395.983 150.455 394.756 150.455C393.409 150.455 392.31 150.753 391.458 151.35C390.623 151.929 390.12 152.824 389.949 154.034H376.961C377.131 151.648 377.89 149.449 379.236 147.438C380.6 145.409 382.586 143.79 385.194 142.58C387.802 141.353 391.057 140.739 394.961 140.739C397.773 140.739 400.296 141.071 402.529 141.736C404.762 142.384 406.662 143.296 408.23 144.472C409.799 145.631 410.992 146.995 411.81 148.563C412.645 150.114 413.063 151.801 413.063 153.625V180.523H399.87V175H399.563C398.779 176.466 397.824 177.651 396.699 178.554C395.591 179.458 394.321 180.114 392.89 180.523C391.475 180.932 389.915 181.137 388.211 181.137ZM392.813 172.239C393.887 172.239 394.892 172.017 395.83 171.574C396.784 171.131 397.56 170.492 398.157 169.657C398.753 168.821 399.052 167.807 399.052 166.614V163.341C398.677 163.495 398.276 163.639 397.85 163.776C397.441 163.912 396.998 164.04 396.52 164.159C396.06 164.279 395.566 164.389 395.037 164.492C394.526 164.594 393.989 164.688 393.427 164.773C392.336 164.943 391.441 165.225 390.742 165.617C390.06 165.992 389.549 166.461 389.208 167.023C388.884 167.568 388.722 168.182 388.722 168.864C388.722 169.955 389.105 170.79 389.873 171.37C390.64 171.949 391.62 172.239 392.813 172.239ZM431.977 141.25L437.704 153.421L443.738 141.25H457.75L447.216 160.887L458.261 180.523H444.352L437.704 168.046L431.261 180.523H417.147L428.295 160.887L417.863 141.25H431.977ZM462.767 180.523V141.25H476.881V180.523H462.767ZM469.824 137.159C467.915 137.159 466.279 136.529 464.915 135.267C463.552 134.006 462.87 132.489 462.87 130.716C462.87 128.943 463.552 127.426 464.915 126.165C466.279 124.904 467.915 124.273 469.824 124.273C471.75 124.273 473.387 124.904 474.733 126.165C476.097 127.426 476.779 128.943 476.779 130.716C476.779 132.489 476.097 134.006 474.733 135.267C473.387 136.529 471.75 137.159 469.824 137.159ZM502.993 181.239C498.731 181.239 495.083 180.395 492.049 178.708C489.015 177.003 486.689 174.634 485.069 171.6C483.45 168.549 482.64 165.012 482.64 160.989C482.64 156.966 483.45 153.438 485.069 150.404C486.689 147.353 489.015 144.983 492.049 143.296C495.083 141.591 498.731 140.739 502.993 140.739C507.254 140.739 510.902 141.591 513.936 143.296C516.97 144.983 519.297 147.353 520.916 150.404C522.535 153.438 523.345 156.966 523.345 160.989C523.345 165.012 522.535 168.549 520.916 171.6C519.297 174.634 516.97 177.003 513.936 178.708C510.902 180.395 507.254 181.239 502.993 181.239ZM503.095 170.807C504.288 170.807 505.319 170.407 506.189 169.605C507.058 168.804 507.731 167.662 508.208 166.179C508.686 164.696 508.924 162.932 508.924 160.887C508.924 158.824 508.686 157.06 508.208 155.594C507.731 154.111 507.058 152.969 506.189 152.168C505.319 151.367 504.288 150.966 503.095 150.966C501.833 150.966 500.751 151.367 499.848 152.168C498.944 152.969 498.254 154.111 497.777 155.594C497.299 157.06 497.061 158.824 497.061 160.887C497.061 162.932 497.299 164.696 497.777 166.179C498.254 167.662 498.944 168.804 499.848 169.605C500.751 170.407 501.833 170.807 503.095 170.807ZM529.072 180.523V141.25H542.47V148.716H542.879C543.697 146.262 545.095 144.318 547.072 142.887C549.049 141.455 551.402 140.739 554.129 140.739C556.89 140.739 559.268 141.472 561.262 142.938C563.257 144.387 564.458 146.313 564.868 148.716H565.277C565.941 146.313 567.356 144.387 569.521 142.938C571.686 141.472 574.226 140.739 577.14 140.739C580.907 140.739 583.958 141.949 586.294 144.37C588.646 146.79 589.822 150.012 589.822 154.034V180.523H575.708V157.614C575.708 155.892 575.274 154.546 574.404 153.574C573.535 152.586 572.368 152.091 570.902 152.091C569.453 152.091 568.302 152.586 567.45 153.574C566.615 154.546 566.197 155.892 566.197 157.614V180.523H552.697V157.614C552.697 155.892 552.262 154.546 551.393 153.574C550.524 152.586 549.356 152.091 547.89 152.091C546.919 152.091 546.083 152.313 545.385 152.756C544.686 153.199 544.14 153.838 543.748 154.674C543.373 155.492 543.186 156.472 543.186 157.614V180.523H529.072ZM622.556 154.341V164.978H598.01V154.341H622.556ZM641.898 181.137C639.392 181.137 637.177 180.728 635.25 179.909C633.341 179.074 631.841 177.813 630.75 176.125C629.659 174.438 629.114 172.29 629.114 169.682C629.114 167.534 629.48 165.702 630.213 164.185C630.946 162.651 631.969 161.398 633.282 160.426C634.594 159.455 636.12 158.713 637.858 158.202C639.614 157.691 641.506 157.358 643.534 157.205C645.733 157.034 647.498 156.83 648.827 156.591C650.174 156.336 651.145 155.986 651.742 155.543C652.338 155.083 652.637 154.478 652.637 153.728V153.625C652.637 152.603 652.245 151.818 651.461 151.273C650.677 150.728 649.671 150.455 648.444 150.455C647.097 150.455 645.998 150.753 645.145 151.35C644.31 151.929 643.807 152.824 643.637 154.034H630.648C630.819 151.648 631.577 149.449 632.924 147.438C634.287 145.409 636.273 143.79 638.881 142.58C641.489 141.353 644.745 140.739 648.648 140.739C651.461 140.739 653.983 141.071 656.216 141.736C658.449 142.384 660.35 143.296 661.918 144.472C663.486 145.631 664.679 146.995 665.498 148.563C666.333 150.114 666.75 151.801 666.75 153.625V180.523H653.557V175H653.25C652.466 176.466 651.512 177.651 650.387 178.554C649.279 179.458 648.009 180.114 646.577 180.523C645.162 180.932 643.603 181.137 641.898 181.137ZM646.5 172.239C647.574 172.239 648.58 172.017 649.517 171.574C650.472 171.131 651.248 170.492 651.844 169.657C652.441 168.821 652.739 167.807 652.739 166.614V163.341C652.364 163.495 651.963 163.639 651.537 163.776C651.128 163.912 650.685 164.04 650.208 164.159C649.748 164.279 649.253 164.389 648.725 164.492C648.213 164.594 647.677 164.688 647.114 164.773C646.023 164.943 645.128 165.225 644.429 165.617C643.748 165.992 643.236 166.461 642.895 167.023C642.571 167.568 642.409 168.182 642.409 168.864C642.409 169.955 642.793 170.79 643.56 171.37C644.327 171.949 645.307 172.239 646.5 172.239ZM673.494 180.523V141.25H687.608V180.523H673.494ZM680.551 137.159C678.642 137.159 677.005 136.529 675.642 135.267C674.278 134.006 673.596 132.489 673.596 130.716C673.596 128.943 674.278 127.426 675.642 126.165C677.005 124.904 678.642 124.273 680.551 124.273C682.477 124.273 684.113 124.904 685.46 126.165C686.824 127.426 687.505 128.943 687.505 130.716C687.505 132.489 686.824 134.006 685.46 135.267C684.113 136.529 682.477 137.159 680.551 137.159Z" fill="url(#paint6_radial_301_3)"/>
<path d="M179.057 222.196V219.545H192.984V222.196H187.589V237H184.452V222.196H179.057ZM198.617 229.33V237H195.532V219.545H198.549V226.134H198.702C199.009 225.395 199.484 224.812 200.126 224.386C200.773 223.955 201.597 223.739 202.597 223.739C203.506 223.739 204.299 223.929 204.975 224.31C205.651 224.69 206.174 225.247 206.543 225.98C206.918 226.713 207.106 227.608 207.106 228.665V237H204.02V229.142C204.02 228.261 203.793 227.577 203.339 227.088C202.89 226.594 202.259 226.347 201.447 226.347C200.901 226.347 200.413 226.466 199.981 226.705C199.555 226.937 199.219 227.276 198.975 227.719C198.736 228.162 198.617 228.699 198.617 229.33ZM216.046 237.256C214.734 237.256 213.6 236.983 212.645 236.438C211.697 235.886 210.966 235.108 210.455 234.102C209.944 233.091 209.688 231.901 209.688 230.531C209.688 229.185 209.944 228.003 210.455 226.986C210.972 225.963 211.694 225.168 212.62 224.599C213.546 224.026 214.634 223.739 215.884 223.739C216.691 223.739 217.452 223.869 218.168 224.131C218.89 224.386 219.526 224.784 220.077 225.324C220.634 225.864 221.072 226.551 221.39 227.386C221.708 228.216 221.867 229.205 221.867 230.352V231.298H211.137V229.219H218.91C218.904 228.628 218.776 228.102 218.526 227.642C218.276 227.176 217.927 226.81 217.478 226.543C217.035 226.276 216.518 226.142 215.927 226.142C215.296 226.142 214.742 226.295 214.265 226.602C213.788 226.903 213.415 227.301 213.148 227.795C212.887 228.284 212.753 228.821 212.748 229.406V231.222C212.748 231.983 212.887 232.636 213.165 233.182C213.444 233.722 213.833 234.136 214.333 234.426C214.833 234.71 215.418 234.852 216.089 234.852C216.538 234.852 216.944 234.79 217.307 234.665C217.671 234.534 217.986 234.344 218.253 234.094C218.52 233.844 218.722 233.534 218.859 233.165L221.739 233.489C221.557 234.25 221.211 234.915 220.699 235.483C220.194 236.045 219.546 236.483 218.756 236.795C217.966 237.102 217.063 237.256 216.046 237.256ZM236.14 237.256C234.862 237.256 233.754 236.974 232.817 236.412C231.879 235.849 231.152 235.062 230.635 234.051C230.123 233.04 229.868 231.858 229.868 230.506C229.868 229.153 230.123 227.969 230.635 226.952C231.152 225.935 231.879 225.145 232.817 224.582C233.754 224.02 234.862 223.739 236.14 223.739C237.419 223.739 238.527 224.02 239.464 224.582C240.402 225.145 241.126 225.935 241.638 226.952C242.155 227.969 242.413 229.153 242.413 230.506C242.413 231.858 242.155 233.04 241.638 234.051C241.126 235.062 240.402 235.849 239.464 236.412C238.527 236.974 237.419 237.256 236.14 237.256ZM236.158 234.784C236.851 234.784 237.43 234.594 237.896 234.213C238.362 233.827 238.709 233.31 238.936 232.662C239.169 232.014 239.285 231.293 239.285 230.497C239.285 229.696 239.169 228.972 238.936 228.324C238.709 227.67 238.362 227.151 237.896 226.764C237.43 226.378 236.851 226.185 236.158 226.185C235.447 226.185 234.856 226.378 234.385 226.764C233.919 227.151 233.569 227.67 233.337 228.324C233.109 228.972 232.996 229.696 232.996 230.497C232.996 231.293 233.109 232.014 233.337 232.662C233.569 233.31 233.919 233.827 234.385 234.213C234.856 234.594 235.447 234.784 236.158 234.784ZM251.663 223.909V226.295H243.924V223.909H251.663ZM245.859 237V222.673C245.859 221.793 246.04 221.06 246.404 220.474C246.773 219.889 247.268 219.452 247.887 219.162C248.506 218.872 249.194 218.727 249.949 218.727C250.484 218.727 250.958 218.77 251.373 218.855C251.788 218.94 252.094 219.017 252.293 219.085L251.68 221.472C251.549 221.432 251.384 221.392 251.185 221.352C250.986 221.307 250.765 221.284 250.52 221.284C249.947 221.284 249.54 221.423 249.302 221.702C249.069 221.974 248.952 222.366 248.952 222.878V237H245.859ZM260.709 223.909V226.295H252.971V223.909H260.709ZM254.905 237V222.673C254.905 221.793 255.087 221.06 255.451 220.474C255.82 219.889 256.314 219.452 256.934 219.162C257.553 218.872 258.241 218.727 258.996 218.727C259.53 218.727 260.005 218.77 260.42 218.855C260.834 218.94 261.141 219.017 261.34 219.085L260.726 221.472C260.596 221.432 260.431 221.392 260.232 221.352C260.033 221.307 259.812 221.284 259.567 221.284C258.993 221.284 258.587 221.423 258.349 221.702C258.116 221.974 257.999 222.366 257.999 222.878V237H254.905ZM263.126 237V223.909H266.211V237H263.126ZM264.677 222.051C264.188 222.051 263.768 221.889 263.415 221.565C263.063 221.236 262.887 220.841 262.887 220.381C262.887 219.915 263.063 219.52 263.415 219.196C263.768 218.866 264.188 218.702 264.677 218.702C265.171 218.702 265.591 218.866 265.938 219.196C266.29 219.52 266.466 219.915 266.466 220.381C266.466 220.841 266.29 221.236 265.938 221.565C265.591 221.889 265.171 222.051 264.677 222.051ZM275.094 237.256C273.787 237.256 272.665 236.969 271.727 236.395C270.795 235.821 270.077 235.028 269.571 234.017C269.071 233 268.821 231.83 268.821 230.506C268.821 229.176 269.077 228.003 269.588 226.986C270.099 225.963 270.821 225.168 271.753 224.599C272.69 224.026 273.798 223.739 275.077 223.739C276.139 223.739 277.079 223.935 277.898 224.327C278.721 224.713 279.378 225.261 279.866 225.972C280.355 226.676 280.633 227.5 280.702 228.443H277.753C277.633 227.812 277.349 227.287 276.9 226.866C276.457 226.44 275.863 226.227 275.119 226.227C274.488 226.227 273.935 226.398 273.457 226.739C272.98 227.074 272.608 227.557 272.341 228.188C272.079 228.818 271.949 229.574 271.949 230.455C271.949 231.347 272.079 232.114 272.341 232.756C272.602 233.392 272.969 233.884 273.44 234.23C273.917 234.571 274.477 234.741 275.119 234.741C275.574 234.741 275.98 234.656 276.338 234.486C276.702 234.31 277.006 234.057 277.25 233.727C277.494 233.398 277.662 232.997 277.753 232.526H280.702C280.628 233.452 280.355 234.273 279.883 234.989C279.412 235.699 278.77 236.256 277.957 236.659C277.145 237.057 276.19 237.256 275.094 237.256ZM283.235 237V223.909H286.32V237H283.235ZM284.786 222.051C284.297 222.051 283.877 221.889 283.525 221.565C283.172 221.236 282.996 220.841 282.996 220.381C282.996 219.915 283.172 219.52 283.525 219.196C283.877 218.866 284.297 218.702 284.786 218.702C285.28 218.702 285.701 218.866 286.047 219.196C286.4 219.52 286.576 219.915 286.576 220.381C286.576 220.841 286.4 221.236 286.047 221.565C285.701 221.889 285.28 222.051 284.786 222.051ZM293.26 237.264C292.43 237.264 291.683 237.116 291.018 236.821C290.359 236.52 289.837 236.077 289.45 235.491C289.069 234.906 288.879 234.185 288.879 233.327C288.879 232.588 289.015 231.977 289.288 231.494C289.561 231.011 289.933 230.625 290.405 230.335C290.876 230.045 291.408 229.827 291.998 229.679C292.595 229.526 293.212 229.415 293.848 229.347C294.615 229.267 295.237 229.196 295.714 229.134C296.192 229.065 296.538 228.963 296.754 228.827C296.976 228.685 297.087 228.466 297.087 228.17V228.119C297.087 227.477 296.896 226.98 296.515 226.628C296.135 226.276 295.587 226.099 294.871 226.099C294.115 226.099 293.515 226.264 293.072 226.594C292.635 226.923 292.339 227.312 292.186 227.761L289.305 227.352C289.533 226.557 289.908 225.892 290.43 225.358C290.953 224.818 291.592 224.415 292.348 224.148C293.104 223.875 293.939 223.739 294.854 223.739C295.484 223.739 296.112 223.812 296.737 223.96C297.362 224.108 297.933 224.352 298.45 224.693C298.967 225.028 299.382 225.486 299.694 226.065C300.013 226.645 300.172 227.369 300.172 228.239V237H297.206V235.202H297.104C296.916 235.565 296.652 235.906 296.311 236.224C295.976 236.537 295.552 236.79 295.041 236.983C294.535 237.17 293.942 237.264 293.26 237.264ZM294.061 234.997C294.68 234.997 295.217 234.875 295.672 234.631C296.126 234.381 296.476 234.051 296.72 233.642C296.97 233.233 297.095 232.787 297.095 232.304V230.761C296.998 230.841 296.834 230.915 296.601 230.983C296.373 231.051 296.118 231.111 295.834 231.162C295.55 231.213 295.268 231.259 294.99 231.298C294.712 231.338 294.47 231.372 294.265 231.401C293.805 231.463 293.393 231.565 293.03 231.707C292.666 231.849 292.379 232.048 292.169 232.304C291.959 232.554 291.854 232.878 291.854 233.276C291.854 233.844 292.061 234.273 292.476 234.562C292.89 234.852 293.419 234.997 294.061 234.997ZM306.359 219.545V237H303.274V219.545H306.359ZM315.485 241.909V223.909H318.519V226.074H318.698C318.857 225.756 319.082 225.418 319.371 225.06C319.661 224.696 320.053 224.386 320.547 224.131C321.042 223.869 321.672 223.739 322.439 223.739C323.451 223.739 324.363 223.997 325.175 224.514C325.993 225.026 326.641 225.784 327.118 226.79C327.601 227.79 327.843 229.017 327.843 230.472C327.843 231.909 327.607 233.131 327.136 234.136C326.664 235.142 326.022 235.909 325.209 236.438C324.397 236.966 323.476 237.23 322.448 237.23C321.698 237.23 321.076 237.105 320.582 236.855C320.087 236.605 319.689 236.304 319.388 235.952C319.093 235.594 318.863 235.256 318.698 234.938H318.57V241.909H315.485ZM318.511 230.455C318.511 231.301 318.63 232.043 318.868 232.679C319.113 233.315 319.462 233.812 319.917 234.17C320.377 234.523 320.934 234.699 321.587 234.699C322.269 234.699 322.84 234.517 323.3 234.153C323.761 233.784 324.107 233.281 324.34 232.645C324.579 232.003 324.698 231.273 324.698 230.455C324.698 229.642 324.582 228.92 324.349 228.29C324.116 227.659 323.769 227.165 323.309 226.807C322.849 226.449 322.275 226.27 321.587 226.27C320.928 226.27 320.368 226.443 319.908 226.79C319.448 227.136 319.099 227.622 318.86 228.247C318.627 228.872 318.511 229.608 318.511 230.455ZM334.252 237.264C333.422 237.264 332.675 237.116 332.011 236.821C331.351 236.52 330.829 236.077 330.442 235.491C330.062 234.906 329.871 234.185 329.871 233.327C329.871 232.588 330.008 231.977 330.28 231.494C330.553 231.011 330.925 230.625 331.397 230.335C331.868 230.045 332.4 229.827 332.991 229.679C333.587 229.526 334.204 229.415 334.84 229.347C335.607 229.267 336.229 229.196 336.707 229.134C337.184 229.065 337.53 228.963 337.746 228.827C337.968 228.685 338.079 228.466 338.079 228.17V228.119C338.079 227.477 337.888 226.98 337.508 226.628C337.127 226.276 336.579 226.099 335.863 226.099C335.107 226.099 334.508 226.264 334.064 226.594C333.627 226.923 333.332 227.312 333.178 227.761L330.297 227.352C330.525 226.557 330.9 225.892 331.422 225.358C331.945 224.818 332.584 224.415 333.34 224.148C334.096 223.875 334.931 223.739 335.846 223.739C336.476 223.739 337.104 223.812 337.729 223.96C338.354 224.108 338.925 224.352 339.442 224.693C339.959 225.028 340.374 225.486 340.687 226.065C341.005 226.645 341.164 227.369 341.164 228.239V237H338.198V235.202H338.096C337.908 235.565 337.644 235.906 337.303 236.224C336.968 236.537 336.545 236.79 336.033 236.983C335.528 237.17 334.934 237.264 334.252 237.264ZM335.053 234.997C335.672 234.997 336.209 234.875 336.664 234.631C337.118 234.381 337.468 234.051 337.712 233.642C337.962 233.233 338.087 232.787 338.087 232.304V230.761C337.991 230.841 337.826 230.915 337.593 230.983C337.366 231.051 337.11 231.111 336.826 231.162C336.542 231.213 336.261 231.259 335.982 231.298C335.704 231.338 335.462 231.372 335.258 231.401C334.797 231.463 334.386 231.565 334.022 231.707C333.658 231.849 333.371 232.048 333.161 232.304C332.951 232.554 332.846 232.878 332.846 233.276C332.846 233.844 333.053 234.273 333.468 234.562C333.883 234.852 334.411 234.997 335.053 234.997ZM349.976 237.256C348.67 237.256 347.547 236.969 346.61 236.395C345.678 235.821 344.959 235.028 344.454 234.017C343.954 233 343.704 231.83 343.704 230.506C343.704 229.176 343.959 228.003 344.471 226.986C344.982 225.963 345.704 225.168 346.636 224.599C347.573 224.026 348.681 223.739 349.959 223.739C351.022 223.739 351.962 223.935 352.78 224.327C353.604 224.713 354.261 225.261 354.749 225.972C355.238 226.676 355.516 227.5 355.584 228.443H352.636C352.516 227.812 352.232 227.287 351.783 226.866C351.34 226.44 350.746 226.227 350.002 226.227C349.371 226.227 348.817 226.398 348.34 226.739C347.863 227.074 347.491 227.557 347.224 228.188C346.962 228.818 346.832 229.574 346.832 230.455C346.832 231.347 346.962 232.114 347.224 232.756C347.485 233.392 347.851 233.884 348.323 234.23C348.8 234.571 349.36 234.741 350.002 234.741C350.457 234.741 350.863 234.656 351.221 234.486C351.584 234.31 351.888 234.057 352.133 233.727C352.377 233.398 352.545 232.997 352.636 232.526H355.584C355.511 233.452 355.238 234.273 354.766 234.989C354.295 235.699 353.653 236.256 352.84 236.659C352.028 237.057 351.073 237.256 349.976 237.256ZM360.93 232.892L360.922 229.168H361.416L366.121 223.909H369.726L363.939 230.352H363.3L360.93 232.892ZM358.118 237V219.545H361.203V237H358.118ZM366.334 237L362.072 231.043L364.152 228.869L370.024 237H366.334ZM375.549 237.264C374.719 237.264 373.972 237.116 373.307 236.821C372.648 236.52 372.126 236.077 371.739 235.491C371.359 234.906 371.168 234.185 371.168 233.327C371.168 232.588 371.305 231.977 371.577 231.494C371.85 231.011 372.222 230.625 372.694 230.335C373.165 230.045 373.697 229.827 374.288 229.679C374.884 229.526 375.501 229.415 376.137 229.347C376.904 229.267 377.526 229.196 378.003 229.134C378.481 229.065 378.827 228.963 379.043 228.827C379.265 228.685 379.376 228.466 379.376 228.17V228.119C379.376 227.477 379.185 226.98 378.805 226.628C378.424 226.276 377.876 226.099 377.16 226.099C376.404 226.099 375.805 226.264 375.361 226.594C374.924 226.923 374.628 227.312 374.475 227.761L371.594 227.352C371.822 226.557 372.197 225.892 372.719 225.358C373.242 224.818 373.881 224.415 374.637 224.148C375.393 223.875 376.228 223.739 377.143 223.739C377.773 223.739 378.401 223.812 379.026 223.96C379.651 224.108 380.222 224.352 380.739 224.693C381.256 225.028 381.671 225.486 381.984 226.065C382.302 226.645 382.461 227.369 382.461 228.239V237H379.495V235.202H379.393C379.205 235.565 378.941 235.906 378.6 236.224C378.265 236.537 377.841 236.79 377.33 236.983C376.824 237.17 376.231 237.264 375.549 237.264ZM376.35 234.997C376.969 234.997 377.506 234.875 377.961 234.631C378.415 234.381 378.765 234.051 379.009 233.642C379.259 233.233 379.384 232.787 379.384 232.304V230.761C379.288 230.841 379.123 230.915 378.89 230.983C378.663 231.051 378.407 231.111 378.123 231.162C377.839 231.213 377.557 231.259 377.279 231.298C377.001 231.338 376.759 231.372 376.555 231.401C376.094 231.463 375.682 231.565 375.319 231.707C374.955 231.849 374.668 232.048 374.458 232.304C374.248 232.554 374.143 232.878 374.143 233.276C374.143 233.844 374.35 234.273 374.765 234.562C375.18 234.852 375.708 234.997 376.35 234.997ZM391.256 242.182C390.148 242.182 389.197 242.031 388.401 241.73C387.606 241.435 386.966 241.037 386.484 240.537C386.001 240.037 385.665 239.483 385.478 238.875L388.256 238.202C388.381 238.457 388.563 238.71 388.802 238.96C389.04 239.216 389.361 239.426 389.765 239.591C390.174 239.761 390.688 239.847 391.307 239.847C392.182 239.847 392.907 239.634 393.481 239.207C394.055 238.787 394.341 238.094 394.341 237.128V234.648H394.188C394.029 234.966 393.796 235.293 393.489 235.628C393.188 235.963 392.788 236.244 392.288 236.472C391.793 236.699 391.171 236.812 390.421 236.812C389.415 236.812 388.503 236.577 387.685 236.105C386.873 235.628 386.225 234.918 385.742 233.974C385.265 233.026 385.026 231.838 385.026 230.412C385.026 228.974 385.265 227.761 385.742 226.773C386.225 225.778 386.876 225.026 387.694 224.514C388.512 223.997 389.424 223.739 390.43 223.739C391.197 223.739 391.827 223.869 392.322 224.131C392.822 224.386 393.219 224.696 393.515 225.06C393.81 225.418 394.035 225.756 394.188 226.074H394.359V223.909H397.401V237.213C397.401 238.332 397.134 239.259 396.6 239.991C396.066 240.724 395.336 241.273 394.41 241.636C393.484 242 392.432 242.182 391.256 242.182ZM391.282 234.392C391.935 234.392 392.492 234.233 392.952 233.915C393.413 233.597 393.762 233.139 394.001 232.543C394.239 231.946 394.359 231.23 394.359 230.395C394.359 229.571 394.239 228.849 394.001 228.23C393.768 227.611 393.421 227.131 392.961 226.79C392.506 226.443 391.947 226.27 391.282 226.27C390.594 226.27 390.02 226.449 389.56 226.807C389.1 227.165 388.753 227.656 388.52 228.281C388.288 228.901 388.171 229.605 388.171 230.395C388.171 231.196 388.288 231.898 388.52 232.5C388.759 233.097 389.109 233.562 389.569 233.898C390.035 234.227 390.606 234.392 391.282 234.392ZM406.359 237.256C405.046 237.256 403.913 236.983 402.958 236.438C402.009 235.886 401.279 235.108 400.768 234.102C400.256 233.091 400.001 231.901 400.001 230.531C400.001 229.185 400.256 228.003 400.768 226.986C401.285 225.963 402.006 225.168 402.932 224.599C403.859 224.026 404.947 223.739 406.197 223.739C407.003 223.739 407.765 223.869 408.481 224.131C409.202 224.386 409.839 224.784 410.39 225.324C410.947 225.864 411.384 226.551 411.702 227.386C412.02 228.216 412.18 229.205 412.18 230.352V231.298H401.449V229.219H409.222C409.216 228.628 409.089 228.102 408.839 227.642C408.589 227.176 408.239 226.81 407.79 226.543C407.347 226.276 406.83 226.142 406.239 226.142C405.609 226.142 405.055 226.295 404.577 226.602C404.1 226.903 403.728 227.301 403.461 227.795C403.199 228.284 403.066 228.821 403.06 229.406V231.222C403.06 231.983 403.199 232.636 403.478 233.182C403.756 233.722 404.145 234.136 404.645 234.426C405.145 234.71 405.731 234.852 406.401 234.852C406.85 234.852 407.256 234.79 407.62 234.665C407.984 234.534 408.299 234.344 408.566 234.094C408.833 233.844 409.035 233.534 409.171 233.165L412.052 233.489C411.87 234.25 411.523 234.915 411.012 235.483C410.506 236.045 409.859 236.483 409.069 236.795C408.279 237.102 407.376 237.256 406.359 237.256ZM427.28 223.909V226.295H419.754V223.909H427.28ZM421.612 220.773H424.697V233.062C424.697 233.477 424.76 233.795 424.885 234.017C425.015 234.233 425.186 234.381 425.396 234.46C425.606 234.54 425.839 234.58 426.095 234.58C426.288 234.58 426.464 234.565 426.623 234.537C426.788 234.509 426.913 234.483 426.998 234.46L427.518 236.872C427.354 236.929 427.118 236.991 426.811 237.06C426.51 237.128 426.14 237.168 425.703 237.179C424.93 237.202 424.234 237.085 423.615 236.83C422.996 236.568 422.504 236.165 422.14 235.619C421.783 235.074 421.606 234.392 421.612 233.574V220.773ZM435.43 237.256C434.151 237.256 433.043 236.974 432.106 236.412C431.168 235.849 430.441 235.062 429.924 234.051C429.413 233.04 429.157 231.858 429.157 230.506C429.157 229.153 429.413 227.969 429.924 226.952C430.441 225.935 431.168 225.145 432.106 224.582C433.043 224.02 434.151 223.739 435.43 223.739C436.708 223.739 437.816 224.02 438.753 224.582C439.691 225.145 440.415 225.935 440.927 226.952C441.444 227.969 441.702 229.153 441.702 230.506C441.702 231.858 441.444 233.04 440.927 234.051C440.415 235.062 439.691 235.849 438.753 236.412C437.816 236.974 436.708 237.256 435.43 237.256ZM435.447 234.784C436.14 234.784 436.719 234.594 437.185 234.213C437.651 233.827 437.998 233.31 438.225 232.662C438.458 232.014 438.574 231.293 438.574 230.497C438.574 229.696 438.458 228.972 438.225 228.324C437.998 227.67 437.651 227.151 437.185 226.764C436.719 226.378 436.14 226.185 435.447 226.185C434.736 226.185 434.145 226.378 433.674 226.764C433.208 227.151 432.859 227.67 432.626 228.324C432.398 228.972 432.285 229.696 432.285 230.497C432.285 231.293 432.398 232.014 432.626 232.662C432.859 233.31 433.208 233.827 433.674 234.213C434.145 234.594 434.736 234.784 435.447 234.784ZM460.621 227.369L457.808 227.676C457.729 227.392 457.589 227.125 457.39 226.875C457.197 226.625 456.936 226.423 456.606 226.27C456.277 226.116 455.873 226.04 455.396 226.04C454.754 226.04 454.214 226.179 453.777 226.457C453.345 226.736 453.132 227.097 453.138 227.54C453.132 227.92 453.271 228.23 453.555 228.469C453.845 228.707 454.322 228.903 454.987 229.057L457.22 229.534C458.459 229.801 459.379 230.224 459.981 230.804C460.589 231.384 460.896 232.142 460.902 233.08C460.896 233.903 460.655 234.631 460.177 235.261C459.706 235.886 459.05 236.375 458.209 236.727C457.368 237.08 456.402 237.256 455.311 237.256C453.709 237.256 452.419 236.92 451.442 236.25C450.464 235.574 449.882 234.634 449.694 233.429L452.703 233.139C452.839 233.73 453.129 234.176 453.572 234.477C454.015 234.778 454.592 234.929 455.302 234.929C456.035 234.929 456.623 234.778 457.067 234.477C457.515 234.176 457.74 233.804 457.74 233.361C457.74 232.986 457.595 232.676 457.305 232.432C457.021 232.187 456.578 232 455.976 231.869L453.743 231.401C452.487 231.139 451.558 230.699 450.956 230.08C450.354 229.455 450.055 228.665 450.061 227.71C450.055 226.903 450.274 226.205 450.717 225.614C451.166 225.017 451.788 224.557 452.584 224.233C453.385 223.903 454.308 223.739 455.354 223.739C456.888 223.739 458.095 224.065 458.976 224.719C459.862 225.372 460.41 226.256 460.621 227.369ZM469.241 237.256C467.929 237.256 466.795 236.983 465.841 236.438C464.892 235.886 464.162 235.108 463.65 234.102C463.139 233.091 462.883 231.901 462.883 230.531C462.883 229.185 463.139 228.003 463.65 226.986C464.167 225.963 464.889 225.168 465.815 224.599C466.741 224.026 467.829 223.739 469.079 223.739C469.886 223.739 470.648 223.869 471.363 224.131C472.085 224.386 472.721 224.784 473.273 225.324C473.829 225.864 474.267 226.551 474.585 227.386C474.903 228.216 475.062 229.205 475.062 230.352V231.298H464.332V229.219H472.105C472.099 228.628 471.971 228.102 471.721 227.642C471.471 227.176 471.122 226.81 470.673 226.543C470.23 226.276 469.713 226.142 469.122 226.142C468.491 226.142 467.937 226.295 467.46 226.602C466.983 226.903 466.611 227.301 466.344 227.795C466.082 228.284 465.949 228.821 465.943 229.406V231.222C465.943 231.983 466.082 232.636 466.361 233.182C466.639 233.722 467.028 234.136 467.528 234.426C468.028 234.71 468.613 234.852 469.284 234.852C469.733 234.852 470.139 234.79 470.503 234.665C470.866 234.534 471.182 234.344 471.449 234.094C471.716 233.844 471.917 233.534 472.054 233.165L474.935 233.489C474.753 234.25 474.406 234.915 473.895 235.483C473.389 236.045 472.741 236.483 471.952 236.795C471.162 237.102 470.258 237.256 469.241 237.256ZM480.758 229.33V237H477.672V223.909H480.621V226.134H480.775C481.076 225.401 481.556 224.818 482.215 224.386C482.88 223.955 483.701 223.739 484.678 223.739C485.582 223.739 486.368 223.932 487.039 224.318C487.715 224.705 488.238 225.264 488.607 225.997C488.982 226.73 489.167 227.619 489.161 228.665V237H486.076V229.142C486.076 228.267 485.849 227.582 485.394 227.088C484.945 226.594 484.323 226.347 483.528 226.347C482.988 226.347 482.508 226.466 482.087 226.705C481.672 226.937 481.346 227.276 481.107 227.719C480.874 228.162 480.758 228.699 480.758 229.33ZM497.155 237.23C496.127 237.23 495.207 236.966 494.394 236.438C493.582 235.909 492.939 235.142 492.468 234.136C491.996 233.131 491.761 231.909 491.761 230.472C491.761 229.017 491.999 227.79 492.476 226.79C492.959 225.784 493.61 225.026 494.428 224.514C495.246 223.997 496.158 223.739 497.164 223.739C497.931 223.739 498.562 223.869 499.056 224.131C499.55 224.386 499.942 224.696 500.232 225.06C500.522 225.418 500.746 225.756 500.905 226.074H501.033V219.545H504.127V237H501.093V234.938H500.905C500.746 235.256 500.516 235.594 500.215 235.952C499.914 236.304 499.516 236.605 499.022 236.855C498.528 237.105 497.905 237.23 497.155 237.23ZM498.016 234.699C498.67 234.699 499.226 234.523 499.687 234.17C500.147 233.812 500.496 233.315 500.735 232.679C500.974 232.043 501.093 231.301 501.093 230.455C501.093 229.608 500.974 228.872 500.735 228.247C500.502 227.622 500.155 227.136 499.695 226.79C499.241 226.443 498.681 226.27 498.016 226.27C497.329 226.27 496.755 226.449 496.295 226.807C495.834 227.165 495.488 227.659 495.255 228.29C495.022 228.92 494.905 229.642 494.905 230.455C494.905 231.273 495.022 232.003 495.255 232.645C495.493 233.281 495.843 233.784 496.303 234.153C496.769 234.517 497.34 234.699 498.016 234.699ZM519.163 237.256C517.851 237.256 516.717 236.983 515.763 236.438C514.814 235.886 514.084 235.108 513.572 234.102C513.061 233.091 512.805 231.901 512.805 230.531C512.805 229.185 513.061 228.003 513.572 226.986C514.089 225.963 514.811 225.168 515.737 224.599C516.663 224.026 517.751 223.739 519.001 223.739C519.808 223.739 520.569 223.869 521.285 224.131C522.007 224.386 522.643 224.784 523.194 225.324C523.751 225.864 524.189 226.551 524.507 227.386C524.825 228.216 524.984 229.205 524.984 230.352V231.298H514.254V229.219H522.027C522.021 228.628 521.893 228.102 521.643 227.642C521.393 227.176 521.044 226.81 520.595 226.543C520.152 226.276 519.635 226.142 519.044 226.142C518.413 226.142 517.859 226.295 517.382 226.602C516.905 226.903 516.533 227.301 516.265 227.795C516.004 228.284 515.871 228.821 515.865 229.406V231.222C515.865 231.983 516.004 232.636 516.283 233.182C516.561 233.722 516.95 234.136 517.45 234.426C517.95 234.71 518.535 234.852 519.206 234.852C519.655 234.852 520.061 234.79 520.425 234.665C520.788 234.534 521.104 234.344 521.371 234.094C521.638 233.844 521.839 233.534 521.976 233.165L524.856 233.489C524.675 234.25 524.328 234.915 523.817 235.483C523.311 236.045 522.663 236.483 521.873 236.795C521.084 237.102 520.18 237.256 519.163 237.256ZM538.913 223.909L534.251 237H530.841L526.18 223.909H529.469L532.478 233.634H532.614L535.631 223.909H538.913ZM546.398 237.256C545.085 237.256 543.952 236.983 542.997 236.438C542.048 235.886 541.318 235.108 540.807 234.102C540.295 233.091 540.04 231.901 540.04 230.531C540.04 229.185 540.295 228.003 540.807 226.986C541.324 225.963 542.045 225.168 542.971 224.599C543.898 224.026 544.986 223.739 546.236 223.739C547.042 223.739 547.804 223.869 548.52 224.131C549.241 224.386 549.878 224.784 550.429 225.324C550.986 225.864 551.423 226.551 551.741 227.386C552.06 228.216 552.219 229.205 552.219 230.352V231.298H541.488V229.219H549.261C549.256 228.628 549.128 228.102 548.878 227.642C548.628 227.176 548.278 226.81 547.829 226.543C547.386 226.276 546.869 226.142 546.278 226.142C545.648 226.142 545.094 226.295 544.616 226.602C544.139 226.903 543.767 227.301 543.5 227.795C543.238 228.284 543.105 228.821 543.099 229.406V231.222C543.099 231.983 543.238 232.636 543.517 233.182C543.795 233.722 544.185 234.136 544.685 234.426C545.185 234.71 545.77 234.852 546.44 234.852C546.889 234.852 547.295 234.79 547.659 234.665C548.023 234.534 548.338 234.344 548.605 234.094C548.872 233.844 549.074 233.534 549.21 233.165L552.091 233.489C551.909 234.25 551.562 234.915 551.051 235.483C550.545 236.045 549.898 236.483 549.108 236.795C548.318 237.102 547.415 237.256 546.398 237.256ZM557.914 229.33V237H554.829V223.909H557.778V226.134H557.931C558.232 225.401 558.712 224.818 559.371 224.386C560.036 223.955 560.857 223.739 561.834 223.739C562.738 223.739 563.525 223.932 564.195 224.318C564.871 224.705 565.394 225.264 565.763 225.997C566.138 226.73 566.323 227.619 566.317 228.665V237H563.232V229.142C563.232 228.267 563.005 227.582 562.55 227.088C562.101 226.594 561.479 226.347 560.684 226.347C560.144 226.347 559.664 226.466 559.243 226.705C558.829 226.937 558.502 227.276 558.263 227.719C558.03 228.162 557.914 228.699 557.914 229.33ZM575.991 223.909V226.295H568.465V223.909H575.991ZM570.323 220.773H573.408V233.062C573.408 233.477 573.471 233.795 573.596 234.017C573.726 234.233 573.897 234.381 574.107 234.46C574.317 234.54 574.55 234.58 574.806 234.58C574.999 234.58 575.175 234.565 575.334 234.537C575.499 234.509 575.624 234.483 575.709 234.46L576.229 236.872C576.064 236.929 575.829 236.991 575.522 237.06C575.221 237.128 574.851 237.168 574.414 237.179C573.641 237.202 572.945 237.085 572.326 236.83C571.707 236.568 571.215 236.165 570.851 235.619C570.493 235.074 570.317 234.392 570.323 233.574V220.773ZM588.73 227.369L585.917 227.676C585.838 227.392 585.699 227.125 585.5 226.875C585.307 226.625 585.045 226.423 584.716 226.27C584.386 226.116 583.983 226.04 583.506 226.04C582.863 226.04 582.324 226.179 581.886 226.457C581.454 226.736 581.241 227.097 581.247 227.54C581.241 227.92 581.381 228.23 581.665 228.469C581.954 228.707 582.432 228.903 583.096 229.057L585.329 229.534C586.568 229.801 587.488 230.224 588.091 230.804C588.699 231.384 589.006 232.142 589.011 233.08C589.006 233.903 588.764 234.631 588.287 235.261C587.815 235.886 587.159 236.375 586.318 236.727C585.477 237.08 584.511 237.256 583.42 237.256C581.818 237.256 580.528 236.92 579.551 236.25C578.574 235.574 577.991 234.634 577.804 233.429L580.812 233.139C580.949 233.73 581.238 234.176 581.682 234.477C582.125 234.778 582.702 234.929 583.412 234.929C584.145 234.929 584.733 234.778 585.176 234.477C585.625 234.176 585.849 233.804 585.849 233.361C585.849 232.986 585.704 232.676 585.415 232.432C585.131 232.187 584.687 232 584.085 231.869L581.852 231.401C580.596 231.139 579.667 230.699 579.065 230.08C578.463 229.455 578.165 228.665 578.17 227.71C578.165 226.903 578.383 226.205 578.827 225.614C579.275 225.017 579.898 224.557 580.693 224.233C581.494 223.903 582.417 223.739 583.463 223.739C584.997 223.739 586.204 224.065 587.085 224.719C587.971 225.372 588.52 226.256 588.73 227.369ZM604.139 223.909V226.295H596.4V223.909H604.139ZM598.335 237V222.673C598.335 221.793 598.517 221.06 598.881 220.474C599.25 219.889 599.744 219.452 600.363 219.162C600.983 218.872 601.67 218.727 602.426 218.727C602.96 218.727 603.435 218.77 603.849 218.855C604.264 218.94 604.571 219.017 604.77 219.085L604.156 221.472C604.025 221.432 603.861 221.392 603.662 221.352C603.463 221.307 603.241 221.284 602.997 221.284C602.423 221.284 602.017 221.423 601.778 221.702C601.545 221.974 601.429 222.366 601.429 222.878V237H598.335ZM606.555 237V223.909H609.547V226.091H609.683C609.922 225.335 610.331 224.753 610.91 224.344C611.496 223.929 612.163 223.722 612.913 223.722C613.084 223.722 613.274 223.73 613.484 223.747C613.7 223.759 613.879 223.778 614.021 223.807V226.645C613.89 226.599 613.683 226.56 613.399 226.526C613.121 226.486 612.851 226.466 612.589 226.466C612.027 226.466 611.521 226.588 611.072 226.832C610.629 227.071 610.28 227.403 610.024 227.83C609.768 228.256 609.64 228.747 609.64 229.304V237H606.555ZM621.242 237.256C619.964 237.256 618.856 236.974 617.918 236.412C616.981 235.849 616.253 235.062 615.736 234.051C615.225 233.04 614.969 231.858 614.969 230.506C614.969 229.153 615.225 227.969 615.736 226.952C616.253 225.935 616.981 225.145 617.918 224.582C618.856 224.02 619.964 223.739 621.242 223.739C622.52 223.739 623.628 224.02 624.566 224.582C625.503 225.145 626.228 225.935 626.739 226.952C627.256 227.969 627.515 229.153 627.515 230.506C627.515 231.858 627.256 233.04 626.739 234.051C626.228 235.062 625.503 235.849 624.566 236.412C623.628 236.974 622.52 237.256 621.242 237.256ZM621.259 234.784C621.952 234.784 622.532 234.594 622.998 234.213C623.464 233.827 623.81 233.31 624.038 232.662C624.27 232.014 624.387 231.293 624.387 230.497C624.387 229.696 624.27 228.972 624.038 228.324C623.81 227.67 623.464 227.151 622.998 226.764C622.532 226.378 621.952 226.185 621.259 226.185C620.549 226.185 619.958 226.378 619.486 226.764C619.02 227.151 618.671 227.67 618.438 228.324C618.211 228.972 618.097 229.696 618.097 230.497C618.097 231.293 618.211 232.014 618.438 232.662C618.671 233.31 619.02 233.827 619.486 234.213C619.958 234.594 620.549 234.784 621.259 234.784ZM630.133 237V223.909H633.082V226.134H633.236C633.508 225.384 633.96 224.798 634.591 224.378C635.221 223.952 635.974 223.739 636.849 223.739C637.736 223.739 638.483 223.955 639.091 224.386C639.704 224.812 640.136 225.395 640.386 226.134H640.523C640.812 225.406 641.301 224.827 641.988 224.395C642.682 223.957 643.503 223.739 644.452 223.739C645.656 223.739 646.639 224.119 647.4 224.881C648.162 225.642 648.542 226.753 648.542 228.213V237H645.449V228.69C645.449 227.878 645.233 227.284 644.801 226.909C644.369 226.528 643.841 226.338 643.216 226.338C642.471 226.338 641.889 226.571 641.469 227.037C641.054 227.497 640.846 228.097 640.846 228.835V237H637.821V228.562C637.821 227.886 637.616 227.347 637.207 226.943C636.804 226.54 636.275 226.338 635.622 226.338C635.179 226.338 634.775 226.452 634.412 226.679C634.048 226.901 633.758 227.216 633.542 227.625C633.327 228.028 633.219 228.5 633.219 229.04V237H630.133ZM660.003 237H656.628L662.773 219.545H666.677L672.83 237H669.455L664.793 223.125H664.657L660.003 237ZM660.114 230.156H669.319V232.696H660.114V230.156ZM678.291 219.545V237H675.129V219.545H678.291ZM690.617 219.545V237H687.532V219.545H690.617ZM693.79 237V223.909H696.875V237H693.79ZM695.341 222.051C694.852 222.051 694.432 221.889 694.079 221.565C693.727 221.236 693.551 220.841 693.551 220.381C693.551 219.915 693.727 219.52 694.079 219.196C694.432 218.866 694.852 218.702 695.341 218.702C695.835 218.702 696.256 218.866 696.602 219.196C696.954 219.52 697.131 219.915 697.131 220.381C697.131 220.841 696.954 221.236 696.602 221.565C696.256 221.889 695.835 222.051 695.341 222.051ZM700.184 237V219.545H703.269V226.074H703.397C703.556 225.756 703.78 225.418 704.07 225.06C704.36 224.696 704.752 224.386 705.246 224.131C705.741 223.869 706.371 223.739 707.138 223.739C708.15 223.739 709.062 223.997 709.874 224.514C710.692 225.026 711.34 225.784 711.817 226.79C712.3 227.79 712.542 229.017 712.542 230.472C712.542 231.909 712.306 233.131 711.834 234.136C711.363 235.142 710.721 235.909 709.908 236.438C709.096 236.966 708.175 237.23 707.147 237.23C706.397 237.23 705.775 237.105 705.28 236.855C704.786 236.605 704.388 236.304 704.087 235.952C703.792 235.594 703.562 235.256 703.397 234.938H703.218V237H700.184ZM703.209 230.455C703.209 231.301 703.329 232.043 703.567 232.679C703.812 233.315 704.161 233.812 704.616 234.17C705.076 234.523 705.633 234.699 706.286 234.699C706.968 234.699 707.539 234.517 707.999 234.153C708.459 233.784 708.806 233.281 709.039 232.645C709.278 232.003 709.397 231.273 709.397 230.455C709.397 229.642 709.28 228.92 709.047 228.29C708.814 227.659 708.468 227.165 708.008 226.807C707.547 226.449 706.974 226.27 706.286 226.27C705.627 226.27 705.067 226.443 704.607 226.79C704.147 227.136 703.797 227.622 703.559 228.247C703.326 228.872 703.209 229.608 703.209 230.455ZM715.165 237V223.909H718.156V226.091H718.292C718.531 225.335 718.94 224.753 719.52 224.344C720.105 223.929 720.773 223.722 721.523 223.722C721.693 223.722 721.883 223.73 722.094 223.747C722.31 223.759 722.488 223.778 722.631 223.807V226.645C722.5 226.599 722.292 226.56 722.008 226.526C721.73 226.486 721.46 226.466 721.199 226.466C720.636 226.466 720.131 226.588 719.682 226.832C719.238 227.071 718.889 227.403 718.633 227.83C718.378 228.256 718.25 228.747 718.25 229.304V237H715.165ZM728.213 237.264C727.383 237.264 726.636 237.116 725.971 236.821C725.312 236.52 724.79 236.077 724.403 235.491C724.023 234.906 723.832 234.185 723.832 233.327C723.832 232.588 723.969 231.977 724.241 231.494C724.514 231.011 724.886 230.625 725.358 230.335C725.829 230.045 726.361 229.827 726.952 229.679C727.548 229.526 728.165 229.415 728.801 229.347C729.568 229.267 730.19 229.196 730.667 229.134C731.145 229.065 731.491 228.963 731.707 228.827C731.929 228.685 732.04 228.466 732.04 228.17V228.119C732.04 227.477 731.849 226.98 731.469 226.628C731.088 226.276 730.54 226.099 729.824 226.099C729.068 226.099 728.469 226.264 728.025 226.594C727.588 226.923 727.292 227.312 727.139 227.761L724.258 227.352C724.486 226.557 724.861 225.892 725.383 225.358C725.906 224.818 726.545 224.415 727.301 224.148C728.057 223.875 728.892 223.739 729.807 223.739C730.437 223.739 731.065 223.812 731.69 223.96C732.315 224.108 732.886 224.352 733.403 224.693C733.92 225.028 734.335 225.486 734.648 226.065C734.966 226.645 735.125 227.369 735.125 228.239V237H732.159V235.202H732.057C731.869 235.565 731.605 235.906 731.264 236.224C730.929 236.537 730.506 236.79 729.994 236.983C729.488 237.17 728.895 237.264 728.213 237.264ZM729.014 234.997C729.633 234.997 730.17 234.875 730.625 234.631C731.079 234.381 731.429 234.051 731.673 233.642C731.923 233.233 732.048 232.787 732.048 232.304V230.761C731.952 230.841 731.787 230.915 731.554 230.983C731.327 231.051 731.071 231.111 730.787 231.162C730.503 231.213 730.221 231.259 729.943 231.298C729.665 231.338 729.423 231.372 729.219 231.401C728.758 231.463 728.346 231.565 727.983 231.707C727.619 231.849 727.332 232.048 727.122 232.304C726.912 232.554 726.807 232.878 726.807 233.276C726.807 233.844 727.014 234.273 727.429 234.562C727.844 234.852 728.372 234.997 729.014 234.997ZM738.227 237V223.909H741.219V226.091H741.355C741.594 225.335 742.003 224.753 742.582 224.344C743.167 223.929 743.835 223.722 744.585 223.722C744.756 223.722 744.946 223.73 745.156 223.747C745.372 223.759 745.551 223.778 745.693 223.807V226.645C745.562 226.599 745.355 226.56 745.071 226.526C744.792 226.486 744.523 226.466 744.261 226.466C743.699 226.466 743.193 226.588 742.744 226.832C742.301 227.071 741.952 227.403 741.696 227.83C741.44 228.256 741.312 228.747 741.312 229.304V237H738.227ZM747.743 237V223.909H750.828V237H747.743ZM749.294 222.051C748.805 222.051 748.385 221.889 748.033 221.565C747.68 221.236 747.504 220.841 747.504 220.381C747.504 219.915 747.68 219.52 748.033 219.196C748.385 218.866 748.805 218.702 749.294 218.702C749.788 218.702 750.209 218.866 750.555 219.196C750.908 219.52 751.084 219.915 751.084 220.381C751.084 220.841 750.908 221.236 750.555 221.565C750.209 221.889 749.788 222.051 749.294 222.051ZM759.796 237.256C758.484 237.256 757.35 236.983 756.395 236.438C755.447 235.886 754.716 235.108 754.205 234.102C753.694 233.091 753.438 231.901 753.438 230.531C753.438 229.185 753.694 228.003 754.205 226.986C754.722 225.963 755.444 225.168 756.37 224.599C757.296 224.026 758.384 223.739 759.634 223.739C760.441 223.739 761.202 223.869 761.918 224.131C762.64 224.386 763.276 224.784 763.827 225.324C764.384 225.864 764.822 226.551 765.14 227.386C765.458 228.216 765.617 229.205 765.617 230.352V231.298H754.887V229.219H762.66C762.654 228.628 762.526 228.102 762.276 227.642C762.026 227.176 761.677 226.81 761.228 226.543C760.785 226.276 760.268 226.142 759.677 226.142C759.046 226.142 758.492 226.295 758.015 226.602C757.538 226.903 757.165 227.301 756.898 227.795C756.637 228.284 756.503 228.821 756.498 229.406V231.222C756.498 231.983 756.637 232.636 756.915 233.182C757.194 233.722 757.583 234.136 758.083 234.426C758.583 234.71 759.168 234.852 759.839 234.852C760.288 234.852 760.694 234.79 761.057 234.665C761.421 234.534 761.736 234.344 762.003 234.094C762.27 233.844 762.472 233.534 762.609 233.165L765.489 233.489C765.307 234.25 764.961 234.915 764.449 235.483C763.944 236.045 763.296 236.483 762.506 236.795C761.716 237.102 760.813 237.256 759.796 237.256ZM778.574 227.369L775.761 227.676C775.682 227.392 775.542 227.125 775.344 226.875C775.15 226.625 774.889 226.423 774.56 226.27C774.23 226.116 773.827 226.04 773.349 226.04C772.707 226.04 772.167 226.179 771.73 226.457C771.298 226.736 771.085 227.097 771.091 227.54C771.085 227.92 771.224 228.23 771.508 228.469C771.798 228.707 772.275 228.903 772.94 229.057L775.173 229.534C776.412 229.801 777.332 230.224 777.935 230.804C778.542 231.384 778.849 232.142 778.855 233.08C778.849 233.903 778.608 234.631 778.131 235.261C777.659 235.886 777.003 236.375 776.162 236.727C775.321 237.08 774.355 237.256 773.264 237.256C771.662 237.256 770.372 236.92 769.395 236.25C768.417 235.574 767.835 234.634 767.648 233.429L770.656 233.139C770.792 233.73 771.082 234.176 771.525 234.477C771.969 234.778 772.545 234.929 773.256 234.929C773.988 234.929 774.577 234.778 775.02 234.477C775.469 234.176 775.693 233.804 775.693 233.361C775.693 232.986 775.548 232.676 775.258 232.432C774.974 232.187 774.531 232 773.929 231.869L771.696 231.401C770.44 231.139 769.511 230.699 768.909 230.08C768.307 229.455 768.008 228.665 768.014 227.71C768.008 226.903 768.227 226.205 768.67 225.614C769.119 225.017 769.741 224.557 770.537 224.233C771.338 223.903 772.261 223.739 773.307 223.739C774.841 223.739 776.048 224.065 776.929 224.719C777.815 225.372 778.363 226.256 778.574 227.369ZM793.889 223.909V226.295H786.363V223.909H793.889ZM788.221 220.773H791.307V233.062C791.307 233.477 791.369 233.795 791.494 234.017C791.625 234.233 791.795 234.381 792.006 234.46C792.216 234.54 792.449 234.58 792.704 234.58C792.898 234.58 793.074 234.565 793.233 234.537C793.398 234.509 793.523 234.483 793.608 234.46L794.128 236.872C793.963 236.929 793.727 236.991 793.42 237.06C793.119 237.128 792.75 237.168 792.312 237.179C791.54 237.202 790.844 237.085 790.224 236.83C789.605 236.568 789.113 236.165 788.75 235.619C788.392 235.074 788.216 234.392 788.221 233.574V220.773ZM802.039 237.256C800.761 237.256 799.653 236.974 798.715 236.412C797.778 235.849 797.05 235.062 796.533 234.051C796.022 233.04 795.766 231.858 795.766 230.506C795.766 229.153 796.022 227.969 796.533 226.952C797.05 225.935 797.778 225.145 798.715 224.582C799.653 224.02 800.761 223.739 802.039 223.739C803.317 223.739 804.425 224.02 805.363 224.582C806.3 225.145 807.025 225.935 807.536 226.952C808.053 227.969 808.312 229.153 808.312 230.506C808.312 231.858 808.053 233.04 807.536 234.051C807.025 235.062 806.3 235.849 805.363 236.412C804.425 236.974 803.317 237.256 802.039 237.256ZM802.056 234.784C802.749 234.784 803.329 234.594 803.795 234.213C804.261 233.827 804.607 233.31 804.834 232.662C805.067 232.014 805.184 231.293 805.184 230.497C805.184 229.696 805.067 228.972 804.834 228.324C804.607 227.67 804.261 227.151 803.795 226.764C803.329 226.378 802.749 226.185 802.056 226.185C801.346 226.185 800.755 226.378 800.283 226.764C799.817 227.151 799.468 227.67 799.235 228.324C799.008 228.972 798.894 229.696 798.894 230.497C798.894 231.293 799.008 232.014 799.235 232.662C799.468 233.31 799.817 233.827 800.283 234.213C800.755 234.594 801.346 234.784 802.056 234.784ZM819.261 237H815.886L822.031 219.545H825.935L832.088 237H828.713L824.051 223.125H823.915L819.261 237ZM819.372 230.156H828.577V232.696H819.372V230.156ZM836.773 223.909L839.415 228.741L842.1 223.909H845.364L841.418 230.455L845.432 237H842.185L839.415 232.287L836.671 237H833.398L837.387 230.455L833.501 223.909H836.773ZM847.751 237V223.909H850.836V237H847.751ZM849.302 222.051C848.813 222.051 848.393 221.889 848.04 221.565C847.688 221.236 847.512 220.841 847.512 220.381C847.512 219.915 847.688 219.52 848.04 219.196C848.393 218.866 848.813 218.702 849.302 218.702C849.796 218.702 850.216 218.866 850.563 219.196C850.915 219.52 851.091 219.915 851.091 220.381C851.091 220.841 850.915 221.236 850.563 221.565C850.216 221.889 849.796 222.051 849.302 222.051ZM859.719 237.256C858.44 237.256 857.332 236.974 856.395 236.412C855.457 235.849 854.73 235.062 854.213 234.051C853.702 233.04 853.446 231.858 853.446 230.506C853.446 229.153 853.702 227.969 854.213 226.952C854.73 225.935 855.457 225.145 856.395 224.582C857.332 224.02 858.44 223.739 859.719 223.739C860.997 223.739 862.105 224.02 863.042 224.582C863.98 225.145 864.704 225.935 865.216 226.952C865.733 227.969 865.991 229.153 865.991 230.506C865.991 231.858 865.733 233.04 865.216 234.051C864.704 235.062 863.98 235.849 863.042 236.412C862.105 236.974 860.997 237.256 859.719 237.256ZM859.736 234.784C860.429 234.784 861.008 234.594 861.474 234.213C861.94 233.827 862.287 233.31 862.514 232.662C862.747 232.014 862.863 231.293 862.863 230.497C862.863 229.696 862.747 228.972 862.514 228.324C862.287 227.67 861.94 227.151 861.474 226.764C861.008 226.378 860.429 226.185 859.736 226.185C859.025 226.185 858.435 226.378 857.963 226.764C857.497 227.151 857.148 227.67 856.915 228.324C856.687 228.972 856.574 229.696 856.574 230.497C856.574 231.293 856.687 232.014 856.915 232.662C857.148 233.31 857.497 233.827 857.963 234.213C858.435 234.594 859.025 234.784 859.736 234.784ZM868.61 237V223.909H871.559V226.134H871.712C871.985 225.384 872.437 224.798 873.067 224.378C873.698 223.952 874.451 223.739 875.326 223.739C876.212 223.739 876.959 223.955 877.567 224.386C878.181 224.812 878.613 225.395 878.863 226.134H878.999C879.289 225.406 879.778 224.827 880.465 224.395C881.158 223.957 881.979 223.739 882.928 223.739C884.133 223.739 885.116 224.119 885.877 224.881C886.638 225.642 887.019 226.753 887.019 228.213V237H883.925V228.69C883.925 227.878 883.709 227.284 883.278 226.909C882.846 226.528 882.317 226.338 881.692 226.338C880.948 226.338 880.366 226.571 879.945 227.037C879.53 227.497 879.323 228.097 879.323 228.835V237H876.297V228.562C876.297 227.886 876.093 227.347 875.684 226.943C875.28 226.54 874.752 226.338 874.099 226.338C873.655 226.338 873.252 226.452 872.888 226.679C872.525 226.901 872.235 227.216 872.019 227.625C871.803 228.028 871.695 228.5 871.695 229.04V237H868.61Z" fill="#09101F"/>
</g>
<rect x="0.5" y="0.5" width="1065.67" height="399" stroke="#E0E0E0"/>
<defs>
<filter id="filter0_d_301_3" x="129.879" y="29.6461" width="835.175" height="207.104" filterUnits="userSpaceOnUse" color-interpolation-filters="sRGB">
<feFlood flood-opacity="0" result="BackgroundImageFix"/>
<feColorMatrix in="SourceAlpha" type="matrix" values="0 0 0 0 0 0 0 0 0 0 0 0 0 0 0 0 0 0 127 0" result="hardAlpha"/>
<feOffset dy="4"/>
<feGaussianBlur stdDeviation="16"/>
<feComposite in2="hardAlpha" operator="out"/>
<feColorMatrix type="matrix" values="0 0 0 0 0.1375 0 0 0 0 0.328673 0 0 0 0 1 0 0 0 1 0"/>
<feBlend mode="normal" in2="BackgroundImageFix" result="effect1_dropShadow_301_3"/>
<feBlend mode="normal" in="SourceGraphic" in2="effect1_dropShadow_301_3" result="shape"/>
</filter>
<linearGradient id="paint0_linear_301_3" x1="19.4345" y1="116.647" x2="-3.15942" y2="156.473" gradientUnits="userSpaceOnUse">
<stop stop-color="#6A68FF"/>
<stop offset="1" stop-color="#6C7EFF" stop-opacity="0"/>
</linearGradient>
<linearGradient id="paint1_linear_301_3" x1="-3.64529e+13" y1="177.186" x2="-3.64529e+13" y2="124.542" gradientUnits="userSpaceOnUse">
<stop stop-color="#6A68FF"/>
<stop offset="1" stop-color="#6C7EFF" stop-opacity="0"/>
</linearGradient>
<linearGradient id="paint2_linear_301_3" x1="-3.64529e+13" y1="199.779" x2="-3.64529e+13" y2="147.135" gradientUnits="userSpaceOnUse">
<stop stop-color="#6A68FF"/>
<stop offset="1" stop-color="#6C7EFF" stop-opacity="0"/>
</linearGradient>
<linearGradient id="paint3_linear_301_3" x1="3.64529e+13" y1="-225668" x2="3.64529e+13" y2="-225616" gradientUnits="userSpaceOnUse">
<stop stop-color="#6A68FF"/>
<stop offset="1" stop-color="#6C7EFF" stop-opacity="0"/>
</linearGradient>
<linearGradient id="paint4_linear_301_3" x1="3.64529e+13" y1="-225668" x2="3.64529e+13" y2="-225616" gradientUnits="userSpaceOnUse">
<stop stop-color="#6A68FF"/>
<stop offset="1" stop-color="#6C7EFF" stop-opacity="0"/>
</linearGradient>
<radialGradient id="paint5_radial_301_3" cx="0" cy="0" r="1" gradientUnits="userSpaceOnUse" gradientTransform="translate(533.213 199.694) rotate(90) scale(199.694 269.511)">
<stop stop-color="white"/>
<stop offset="1" stop-color="#D9D9D9" stop-opacity="0"/>
</radialGradient>
<radialGradient id="paint6_radial_301_3" cx="0" cy="0" r="1" gradientUnits="userSpaceOnUse" gradientTransform="translate(699.52 175.773) rotate(167.994) scale(318.918 9102.31)">
<stop stop-color="#0D0F26"/>
<stop offset="0.622778" stop-color="#384382"/>
<stop offset="0.773151" stop-color="#504F79"/>
<stop offset="1" stop-color="#0D0F26"/>
</radialGradient>
<clipPath id="clip0_301_3">
<rect width="1066.67" height="400" fill="white"/>
</clipPath>
<clipPath id="clip1_301_3">
<rect width="1085" height="458" fill="white" transform="translate(-9.28687 -29)"/>
</clipPath>
</defs>
</svg>
